<svg width="30" height="30" fill="none" xmlns="http://www.w3.org/2000/svg"><path d="M20.976 8.155a1.542 1.542 0 00-.5.118c-.152.061-1.03.435-2.325.99a7549.355 7549.355 0 00-11.265 4.826l.024-.01s-.198.067-.399.207c-.1.07-.208.16-.297.292a.772.772 0 00-.128.515c.085.693.803.89.803.89l.003.001 3.205 1.097c.082.272.972 3.244 1.168 3.873.108.348.21.549.315.686a.667.667 0 00.17.16.47.47 0 00.075.037h.001c.003.002.006.002.01.003l-.01-.002.018.009c.012.004.019.003.033.007.367.128.671-.11.671-.11l.013-.01 1.969-1.826 3.195 2.491.04.019c.559.248 1.065.11 1.345-.119.28-.227.39-.521.39-.521l.012-.031L21.86 9.51c.06-.273.068-.51.012-.724a.842.842 0 00-.367-.503.931.931 0 00-.53-.128zm.019.732a.33.33 0 01.14.014c.017.01.025.009.04.07.017.06.025.187-.018.385l-.002.005-2.334 12.165c-.006.012-.054.125-.165.215-.114.092-.24.164-.574.024l-3.494-2.724-.098-.078-.003.002-1.044-.784 5.871-6.908a.36.36 0 00-.474-.533l-8.496 5.664-3.21-1.098s-.319-.178-.334-.301c0-.007-.004-.001.012-.026a.472.472 0 01.11-.102 1.14 1.14 0 01.224-.117l.012-.004.012-.005 6.618-2.837 4.647-1.99c1.294-.553 2.23-.951 2.309-.983a.778.778 0 01.25-.054zM17.1 12.765l-4.453 5.24-.002.001a.311.311 0 00-.04.056.36.36 0 00-.046.139v.003l-.58 2.608c-.01-.028-.017-.038-.027-.071v-.001a660.756 660.756 0 01-1.14-3.782l6.288-4.193zm-3.95 6.098l.8.6-1.176 1.09.376-1.69z" fill="#000"/><circle cx="15" cy="15" r="14.5" stroke="#000"/></svg>