<svg version="1.1" id="Layer_1" xmlns="http://www.w3.org/2000/svg" xmlns:xlink="http://www.w3.org/1999/xlink" x="0" y="0" viewBox="0 0 1000 1000" xml:space="preserve"><style>.st0{clip-path:url(#SVGID_2_)}</style><defs><path id="SVGID_1_" d="M330.79 325.39H669.2v349.22H330.79z"/></defs><clipPath id="SVGID_2_"><use xlink:href="#SVGID_1_" overflow="visible"/></clipPath><path class="st0" d="M411.44 629.11h44.48l-3.4 8.4h-.39c-3.47-3.92-9.34-2.95-16.54-2.95 0 0 .02 18.17.02 30.69 0 3.72.68 6.73 1.71 8.34v.38h-9.55v-.38c1.02-1.36 1.73-3.91 1.73-8.43 0-10.4-.06-25.2-.06-30.61-13.69-.4-14.19-.04-17.63 2.95h-.39v-8.39zm72.62 28.58c.26 0 .96.01 1.09-.32 0-.69-7.12-13.38-9.49-18.01h-.38c-.5 2.11-2.13 4.77-4.63 9.36-2.37 4.34-4.83 8.53-4.73 9.09 1.13-.07 6.86-.08 8.78-.1 1.92-.01 9.36-.02 9.36-.02m-10.64-29.29l.06-.38h3.14s12.68 25.56 24.48 45.95h-9.29l-.13-.38c.89-2.66-.98-5.78-3.53-10.58h-23.84c-2.58 2.39-6.45 7.82-5.57 10.58l-.13.38h-7.95s2.12-3.46 12-22.04c5.65-10.63 12.06-21.09 10.76-23.53m95.49 46.21c-4.31 0-8.05-.89-11.18-2.66-3.14-1.77-5.56-4.39-7.24-7.85-1.69-3.46-2.53-7.67-2.53-12.62 0-6.2-.06-18.82-.39-22.05v-.32h8.91v.38c-2.83 2.87-2.37 10.89-2.37 15.64v6.99c0 5.64 1.3 9.91 3.91 12.82 2.61 2.9 6.26 4.36 10.96 4.36 4.66 0 8.31-1.5 10.96-4.49 2.65-2.99 3.97-7.37 3.97-13.14 0-3.42-.03-6.46-.1-9.13-.06-2.67-.51-10.83-.99-13.04v-.38h7.11v.32c-.26 3.61-.32 17.3-.32 21.92 0 4.96-.82 9.18-2.47 12.66-1.65 3.48-4.03 6.12-7.14 7.92-3.12 1.77-6.82 2.67-11.09 2.67m-62.17-.51l-.06-.19c.96-13.67.13-43.11 0-44.48v-.32h8.59v.38c-2.13 2.26-2.18 6.39-2.18 13.31 0 9.87.04 24.95.06 25.73 16.92-.55 24.86 1.36 31.34-2.82h.13l-3.33 8.07c-4.84.83-24.23-.53-34.55.32m8.82-69.7c-1.9.19-6.58.47-6.58.47.56-4.89 4.77-5.72 6.54-5.72 1.57 0 5.16.51 5.79 4.71-1.94.17-3.85.35-5.75.54m9.57.51c-.07-1.6-.53-3.04-1.36-4.34-.84-1.29-1.98-2.31-3.42-3.06-1.45-.75-3.06-1.12-4.86-1.12-2.02 0-3.81.41-5.36 1.23-1.56.82-2.76 1.96-3.61 3.43-.84 1.47-1.27 3.15-1.27 5.04 0 1.87.45 3.54 1.35 5 .89 1.47 2.19 2.63 3.87 3.46s3.66 1.25 5.96 1.25c1.87 0 3.54-.29 5-.86 1.47-.57 2.67-1.29 3.59-2.17v-4.02h-.6c-3.38 4.53-6.22 4.29-8.11 4.29-2.39 0-6.61-.78-7.35-5.17l16.05-1.22c.08-.44.12-1.02.12-1.74m-40.65 2.28c0 1.97.38 3.43 1.16 4.41.77.97 1.79 1.46 3.06 1.46 1.07 0 2.14-.31 3.21-.93s2.02-1.43 2.86-2.43c.83-.99 1.48-2.01 1.92-3.03v-5.49c-.57-.6-1.35-1.08-2.31-1.46-.97-.37-2.06-.56-3.25-.56-1.37 0-2.55.3-3.55.9-.99.6-1.76 1.5-2.3 2.69-.53 1.18-.8 2.67-.8 4.44m-3.59 0c0-2.31.4-4.28 1.19-5.88.8-1.61 1.95-2.83 3.46-3.66 1.51-.83 3.28-1.25 5.33-1.25 1.12 0 2.19.12 3.21.36s1.88.53 2.58.88c0 0 .08-1.3.08-2.79 0-2.49.08-4.47-.9-5.32h-.04v-.23h4.48v.19c-.23 1.07-.23 7.77-.22 10.98.01 3.77-.04 12.98.08 15.09h-3.07l-.22-4h-.19c-.9 1.19-2.03 2.2-3.4 3.03s-2.93 1.23-4.67 1.23c-1.52 0-2.86-.34-4.02-1.01-1.16-.67-2.06-1.66-2.71-2.95-.65-1.3-.97-2.86-.97-4.67m167.3-29.83c-4.31 0-8.05-.89-11.18-2.66-3.14-1.77-5.56-4.39-7.24-7.85-1.68-3.46-2.53-7.67-2.53-12.62 0-6.2-.06-18.82-.39-22.05v-.32h8.91v.38c-2.83 2.87-2.37 10.89-2.37 15.64v6.99c0 5.64 1.3 9.91 3.91 12.82 2.61 2.9 6.26 4.36 10.96 4.36 4.66 0 8.31-1.5 10.96-4.49 2.65-2.99 3.97-7.37 3.97-13.14 0-3.42-.03-6.46-.1-9.13-.06-2.67-.51-10.83-.99-13.04v-.38h7.11v.32c-.26 3.61-.32 17.3-.32 21.92 0 4.96-.83 9.18-2.47 12.66-1.64 3.48-4.03 6.12-7.14 7.92-3.12 1.77-6.82 2.67-11.09 2.67m-271.8-17.41c-3.57 5.9-7.96 8.91-10.14 10.02-2.86 1.46-6.06 2.19-9.63 2.19-3.91 0-7.33-.75-10.27-2.25-2.94-1.5-5.19-3.6-6.76-6.28-1.57-2.68-2.35-5.75-2.35-9.18s.78-6.49 2.35-9.18c1.57-2.68 6.34-8.64 16.59-8.64 11.3 0 18.46 8.14 20.22 11.74h1.1v-8.42c-1.89-2.36-4.7-4.4-8.44-6.12-3.74-1.72-8.01-2.58-12.82-2.58-5.07 0-9.52 1.01-13.36 3.03-3.85 2.02-6.82 4.79-8.93 8.31-2.1 3.52-3.15 7.47-3.15 11.85s1.05 8.33 3.15 11.85c2.1 3.52 5.08 6.29 8.93 8.31 3.84 2.02 8.3 3.03 13.36 3.03 4.81 0 9.08-.86 12.82-2.58 3.73-1.72 6.55-3.76 8.44-6.12v-8.99h-1.11zm11.41 16.45c.13-2.14.22-5.09.29-8.88.06-3.78.1-8.41.1-13.88 0-5.77-.03-10.41-.1-13.94-.06-3.53-.16-6.04-.29-7.53v-.32h8.39v.39c-.6.73-1.03 1.63-1.31 2.72-.28 1.09-.46 2.39-.54 3.91s.09 12.59.13 13.1c.34 0 12.76-.18 14.51-.18 2.25 0 12.66.44 15.42-1.23 0-7.21-.6-14.61-.9-18.33v-.39h7.24v.32c-.09 1.54-.16 4.12-.23 7.76-.06 3.63-.1 8.84-.1 15.63 0 5.73.03 10.3.1 13.72.06 3.42.16 5.79.29 7.12v.32h-8.33v-.38c.64-1.5 1.08-3.09 1.32-4.78.24-1.68.38-3.68.45-5.99.06-2.31.1-5.13.1-8.46h-27.78c-.72 0-2.32-.12-2.35 1.68-.03 2.59.04 4.95.1 7.3.06 2.35.17 4.39.32 6.12.15 1.73.35 3.11.61 4.14v.38h-7.43v-.32zm82.1-15.96c.26 0 .96.01 1.09-.32 0-.69-7.12-13.38-9.49-18.01h-.38c-.5 2.12-2.13 4.78-4.63 9.37-2.37 4.34-4.83 8.53-4.73 9.09 1.13-.07 6.86-.08 8.78-.1 1.92-.02 9.36-.03 9.36-.03m-10.64-29.29l.06-.38h3.14s12.68 25.56 24.48 45.95h-9.29l-.13-.38c.89-2.66-.98-5.78-3.53-10.58h-23.84c-2.58 2.39-6.45 7.82-5.57 10.58l-.13.38h-7.95s2.12-3.46 12-22.04c5.65-10.64 12.06-21.09 10.76-23.53m24.41.71h44.48l-3.4 8.4h-.39c-3.47-3.92-9.34-2.95-16.54-2.95 0 0 .02 18.17.02 30.69 0 3.72.68 6.73 1.71 8.34v.38H500v-.38c1.02-1.36 1.72-3.91 1.72-8.42 0-10.39-.06-25.2-.06-30.61-13.69-.4-14.19-.04-17.63 2.95h-.39v-8.4zm50.51 44.73c.32-3.71.39-17.6.39-22.94 0-5.64-.04-17.93-.39-21.66v-.13h35.57v7.43h-.13c-3.67-2.89-13.15-2.05-29.16-2.05.04 2.05.07 4.18.1 6.38.02 2.2.03 4.52.03 6.95h.13c1.03-.13 2.39-.21 4.1-.26 1.71-.04 17.75-.06 17.75-.06l-4.42 7.11h-.19c-7.76-1.45-14.93-1.91-16.15-1.86-1.24 2.66-1.22 12.52-1.22 14.87 1.3.52 7.72 1.01 14.46.97 5.5-.03 11.21-.3 14.57-2.05h.13v7.5l-35.57-.06v-.14zm72.42-16.15c.26 0 .96.01 1.09-.32 0-.69-7.12-13.38-9.49-18.01h-.38c-.5 2.12-2.13 4.78-4.63 9.37-2.37 4.34-4.83 8.53-4.73 9.09 1.13-.07 6.86-.08 8.78-.1 1.92-.02 9.36-.03 9.36-.03m-10.64-29.29l.06-.38h3.14s12.68 25.56 24.48 45.95h-9.29l-.13-.38c.89-2.66-.98-5.78-3.53-10.58h-23.84c-2.58 2.39-6.45 7.82-5.57 10.58l-.13.38h-7.95s2.12-3.46 12-22.05c5.65-10.63 12.06-21.08 10.76-23.52m-79.54-115.47c.51-2.48 1.55-7.04 1.96-8.87.05-.2.33-.2.4 0 1.8 4.9 3.72 7.91 4.15 9.93.04.18-.05.36-.23.44-.74.35-2.85 1.43-5.48 3.39-.12.09-.31.02-.34-.13-.57-2.94-.52-4.48-.46-4.76M552.3 388c-2.56-1.18-4.06-.65-4.75-.55-.13.02-.23-.08-.24-.2 0-.45-.03-1.46-.14-2.06-.36-1.85-1.24-3.37-2.32-4.3 4.2-1.58 7.23-5.57 7.34-10.34.1-4.32-2.24-8.11-5.75-10.1a1.18 1.18 0 01-.51-.59c-2.37-6.4-9.32-10.57-16.88-8.49-4.74 1.3-8.42 5.2-9.53 9.98-1.62 6.95 2.02 13.24 7.7 15.85.18.08.4.05.55-.09 1.39-1.29 2.52-2.78 2.98-4.45v-.01c-1.97-1.93-1.12-8.74 1.2-6.63 1.21 1.1 1.45 2.21 3.9 2.32 3.6.16 8.83-3.97 10-4.94.12-.1.29-.05.35.1.13.38.35 1.09.49 1.93.28 1.7-.34 3.43-1.56 4.65-1.16 1.16-1.1 2.12-.21 5.87-.68.89-1.96.96-1.96.96s-.59 2.3-2.43 3.66c-.9 1.34-.98 2.46-2.77 1.86-1.28-.43-2.68-1.2-3.73-1.89-.52 1.01-1.27 2.07-1.21 3.51.01.33-.02 1.37 1.18 2.77.1.12.2.26.24.41.03.11.03.25-.09.31-.16.08-.5.03-.69-.01-2.26-.42-8.13-2.53-11.93-4.07-2.42-.98-3.93-1.2-4.55-1.33-6.37-1.27-6.44 9.51-6.56 13.48-.06 1.95.09 1.5-1.09 12.7-.63 6.01-.75 6.54-1.14 8.7-.27 1.52.11 3.14.72 5.61.16.67.77 2.24 1.22 4.61.02.13-.01.26-.09.35a37.368 37.368 0 00-5.63 9.81c-.11.29-.47.39-.7.18-6.05-5.68-12.07-12.7-15.64-20.4-.03-.15-.06-.29-.1-.44.03-1.42.31-4.26 2.23-9.51 3.19-8.76 4.6-17.73.58-23.93l-.01-.01c-3.22 0-5.99-1.67-8.96-1.67-2.08 0-3.76.58-5.11 1.56.36-1.56.52-2.55-2.61-6.21-.18-.21-.41-.4-.68-.49-1.11-.36-2.64-.32-4.23-.84-1.79-.58-1.19-1.53-1.11-3.14-.65-2.19.24-4.39.24-4.39s-.98-.82-.99-1.94c2.82-2.37 3.52-3.14 3.37-4.62-.21-2.13.64-4.25 2.32-5.59.3-.24.55-.42.73-.54.13-.09.3-.03.34.13.36 1.47 2.08 7.91 5.05 9.93 2.02 1.38 2.89.63 4.51.47 3.35-.33-.68 6.53-3.46 5.98-.19-.04-.34.17-.24.34 1.56 2.77 3.15 4.46 4.66 5.7.04.01.07.01.1.02 5.91-1.57 10.27-6.94 10.27-13.35 0-7.64-6.19-13.83-13.83-13.83-.82 0-1.61.09-2.38.22-4.25.41-8.97 2.88-13.3 9.26-5.98 8.81-9.85 4.73-15.77 7.45-3.63 1.67-5.57 4.66-5.81 5.64 8.94 3.41 13.47 16.78 30.15 12.91-2.31 4.66-6.73 7.82-7.84 10.07-1.95 3.94.28 6.9 1.81 8.68 1.47 1.71 3.78 6.95 4.09 13.18.03.48-.18.94-.54 1.27-10.81 9.91-15.32 23.36-15.32 32.03v.49c1.77.05 3.72.11 5.84.16.25.01.49-.06.7-.2 1.55-1.03 4.6-2.86 6.32-2.73 2.24.18 5.07-1.96 5.19-2.85 0-.03.01-.05.02-.07 1.6-8.46 1.58-12.52 1.94-16 0-.05.03-.09.04-.14.31-3.99.77-8.19 1.37-10.32-.04-2.67-.29-14.42-1.41-22.45-.47-3.4 10.55-4.86 10.03-.76-1.38 10.75-1.25 23.98-1.41 24.89 0 0-.11 1.64-.7 4.1-.26 1.08-1.11 4.37-1.95 7.6 0 .02-.01.05-.02.06-.98 3.76-1.94 7.43-1.94 7.43-.04.24-.12.46-.21.67-.48 1.77-1.02 3.78-1.66 6.13 0 .01-.01.02-.01.04-.66 2.48-1.78 4.31-3.06 4.87 7.56.12 16.34.2 26.2.2 7.32 0 13.96-.04 19.92-.11-1.67-.51-2.97-2.44-4.1-4.75-.17-.34-4.99-12.5-5.91-15.94-.1-.36.04-1.72 3.24-2.28 2.53-.44 3.18-.03 3.34.7.76 3.41 1.91 12.08 3.41 16.58.04.06.06.1.1.16.7.6 3.65 2.58 5.71 2.42 1.74-.14 4.92 1.85 6.3 2.78.17.05.32.09.49.14 4.99-.1 9.25-.21 12.76-.32v-.48c0-11.82-2.29-23.3-7.74-31.93-.25-.41-.39-.89-.36-1.37.34-6.26 1.06-9.91 2.53-11.62 1.53-1.77 3.76-4.74 1.81-8.68-1.48-2.99-4.08-4.68-5.52-7.36.54.39 1.15.75 1.83 1.03 1.7.7 3.42.81 4.77.45-.04 1.77.84 3.51 2.48 4.46 5.92 3.7 12.54-1.21 12.23-4.6-3.07.01-3.41-2.48-6.5-3.91"/><path class="st0" d="M559.9 437.46h-.39l-5.51 5.99s1.18 6.02.44 14.64c-7.84.32-25.75.89-52.93.89-25.09 0-43.2-.53-51.92-.86-.33-7.07-.79-20.26-.79-38.09 0-5.92.05-10.46.13-14.22l.03-.03c.52-17.05.72-19.04.72-19.04l-6.17-6.65h-.39s1.1 11.27 1.1 39.95c0 27.57-1.1 44.62-1.1 44.62s22.57-1.1 58.4-1.1c37.51 0 58.4 1.1 58.4 1.1-1.15-14.98-.02-27.2-.02-27.2"/><path class="st0" d="M559.27 347.17h-.04c-15.32-13.39-35.34-21.54-57.26-21.78h-.93c-21.92.24-41.95 8.39-57.26 21.78h-.04s.84 7.67.49 16.67h.33c1.34-1.49 2.85-3.48 4.55-5.03.01-3.54.22-6.58.42-8.68.42-.37.83-.75 1.25-1.11 15.86-13.28 29.49-18.8 48-19.36.16 2.39.44 10.38.44 37.12 0 35.83-1.1 42.82-1.1 42.82s2.36 2.53 3.39 3.68c0 .01 3.39-3.68 3.39-3.68s-1.1-6.98-1.1-42.82c0-26.74.28-34.73.44-37.12 18.51.57 32.14 6.08 48 19.36.43.36.83.74 1.25 1.11.2 2.1.41 5.14.41 8.68 1.7 1.55 3.21 3.54 4.55 5.03h.33c-.35-9 .49-16.67.49-16.67"/></svg>