<svg version="1.1" id="Layer_1" xmlns="http://www.w3.org/2000/svg" xmlns:xlink="http://www.w3.org/1999/xlink" x="0" y="0" viewBox="0 0 1000 1000" xml:space="preserve"><path d="M279.17 379.33l-20.74 27.06v-27.06h-16.64v65.78h16.64v-15.04l7.12-8.64 14.6 23.68h20.3l-23.95-36.67 22.79-29.11z"/><defs><path id="SVGID_1_" d="M240.55 364.28h518.89v271.45H240.55z"/></defs><clipPath id="SVGID_2_"><use xlink:href="#SVGID_1_" overflow="visible"/></clipPath><path d="M336.14 409.5c5.25 0 8.01-3.29 8.01-7.48 0-4.27-3.02-7.48-7.65-7.48h-9.53v14.95h9.17zm.36-30.17c8.37 0 14.6 2.23 18.6 6.59 4.09 4.36 6.14 9.79 6.14 16.29s-2.13 11.84-6.32 16.02c-4.18 4.18-10.77 6.23-19.58 6.23h-8.37v20.65h-16.64v-65.78h26.17zm120.43 57.41c-6.5-6.32-9.7-14.42-9.7-24.3 0-9.97 3.3-18.16 9.79-24.57 6.59-6.5 14.6-9.7 24.12-9.7 11.75 0 22.16 5.07 28.22 12.99l-10.59 11.13c-5.07-5.43-10.59-8.19-16.55-8.19-5.07 0-9.26 1.69-12.73 5.16-3.38 3.47-5.07 7.83-5.07 13.09 0 5.07 1.69 9.35 5.07 12.82 3.47 3.38 7.66 5.07 12.64 5.07 6.5 0 12.19-2.85 16.91-8.45l11.04 10.59c-3.02 4-7.12 7.3-12.19 9.88-5.07 2.58-10.68 3.83-16.82 3.83-9.63 0-17.64-3.12-24.14-9.35" clip-path="url(#SVGID_2_)"/><path d="M522.27 445.11v-65.78h16.64v25.1h23.06v-25.1h16.74v65.78h-16.74v-24.74h-23.06v24.74zm105.57-26.44l-6.23-19.49-6.5 19.49h12.73zm7.84 26.44l-3.83-12.02h-20.92l-3.92 12.02h-17.18l24.03-65.78h15.49l23.41 65.78h-17.08z"/><defs><path id="SVGID_3_" d="M240.55 364.28h518.89v271.45H240.55z"/></defs><clipPath id="SVGID_4_"><use xlink:href="#SVGID_3_" overflow="visible"/></clipPath><path d="M697.19 410.13v-15.85h-7.56c-6.86 0-10.24 2.76-10.24 8.19 0 5.61 3.47 8.37 10.33 8.37 2.31 0 4.8-.27 7.47-.71m16.38-30.8v65.78h-16.38v-20.83c-2.23.36-4.81.62-7.74.71l-11.57 20.12h-18.51l14.33-22.97c-7.57-3.65-11.3-10.33-11.3-20.03 0-6.85 2.22-12.28 6.68-16.47 4.54-4.18 11.12-6.32 19.85-6.32h24.64z" clip-path="url(#SVGID_4_)"/><path d="M241.79 479.47v65.78h16.64v-49.84h23.05v49.84h16.74v-65.78zm153.64 65.78l22.78-65.78h18.52l22.07 65.78h-17.98l-13.44-45.48-13.97 45.48z"/><defs><path id="SVGID_5_" d="M240.55 364.28h518.89v271.45H240.55z"/></defs><clipPath id="SVGID_6_"><use xlink:href="#SVGID_5_" overflow="visible"/></clipPath><path d="M503.13 510.27v-15.85h-7.56c-6.86 0-10.24 2.76-10.24 8.19 0 5.61 3.47 8.37 10.33 8.37 2.31 0 4.8-.26 7.47-.71m16.38-30.8v65.78h-16.38v-20.83c-2.23.36-4.81.62-7.74.71l-11.57 20.12H465.3l14.33-22.97c-7.57-3.65-11.3-10.33-11.3-20.03 0-6.85 2.22-12.28 6.68-16.47 4.54-4.18 11.12-6.32 19.85-6.32h24.65z" clip-path="url(#SVGID_6_)"/><path d="M536.87 545.25v-65.78h16.65v25.1h23.05v-25.1h16.74v65.78h-16.74v-24.74h-23.05v24.74zm105.57-26.43l-6.23-19.49-6.5 19.49h12.73zm7.84 26.43l-3.83-12.02h-20.92l-3.92 12.02h-17.18l24.03-65.78h15.49l23.41 65.78h-17.08zm-378.53 46.52l-24.52 31.31v-31.31h-6.68v43.25h4.1l24.41-31.08v31.08h6.67v-43.25zm17.4 0v43.25h6.67v-37.05h19.32v-6.2z"/><defs><path id="SVGID_7_" d="M240.55 364.28h518.89v271.45H240.55z"/></defs><clipPath id="SVGID_8_"><use xlink:href="#SVGID_7_" overflow="visible"/></clipPath><path d="M352.6 624.66c2.98-2.98 4.51-6.73 4.51-11.18 0-4.51-1.52-8.31-4.51-11.3-2.98-2.98-6.61-4.51-10.95-4.51-4.27 0-7.96 1.52-10.95 4.56-2.99 2.99-4.45 6.73-4.45 11.24 0 4.39 1.46 8.14 4.39 11.12 2.98 2.99 6.62 4.51 11.01 4.51 4.34.01 7.97-1.45 10.95-4.44m-26.98 4.68c-4.27-4.28-6.38-9.54-6.38-15.75 0-6.26 2.16-11.59 6.56-15.98 4.39-4.39 9.66-6.62 15.86-6.62 6.26 0 11.53 2.17 15.92 6.56 4.39 4.39 6.56 9.66 6.56 15.86s-2.17 11.47-6.56 15.81c-4.39 4.33-9.72 6.5-16.1 6.5-6.26 0-11.59-2.1-15.86-6.38m63.75-16.56c5.21 0 7.96-3.39 7.96-7.43s-2.63-7.26-7.26-7.26h-8.49v14.69h7.79zm.41-21.01c4.74 0 8.31 1.35 10.71 4.04 2.46 2.63 3.69 5.85 3.69 9.66 0 3.81-1.29 6.97-3.81 9.6s-6.26 3.92-11.18 3.92h-7.61v16.04h-6.73v-43.26h14.93z" clip-path="url(#SVGID_8_)"/><path d="M441.3 591.77v17.97h-20.61v-17.97h-6.73v43.25h6.73v-18.79h20.61v18.79h6.73v-43.25zm34.89 10.71l5.85 15.69h-11.71l5.86-15.69zm-2.16-10.71l-17.21 43.26h7.26l4.1-10.66h15.92l4.1 10.66h7.26l-17.03-43.26h-4.4z"/><defs><path id="SVGID_9_" d="M240.55 364.28h518.89v271.45H240.55z"/></defs><clipPath id="SVGID_10_"><use xlink:href="#SVGID_9_" overflow="visible"/></clipPath><path d="M525.54 612.78v-14.69h-7.2c-6.15 0-8.96 3.05-8.96 7.55 0 5.15 3.1 7.72 9.25 7.72 2.76 0 5.1-.17 6.91-.58m6.68-21.01v43.26h-6.67v-16.1c-2.28.41-4.74.64-7.26.64l-9.25 15.45h-8.02l10.36-16.39c-6.09-1.93-8.9-7.08-8.9-12.94 0-3.92 1.29-7.26 3.86-9.89 2.58-2.69 6.38-4.04 11.42-4.04h14.46zm26.7 39.57l2.75-5.5c4.28 2.51 8.37 3.75 12.29 3.75 5.62 0 9.31-2.87 9.31-7.03 0-4.04-3.51-6.61-8.9-6.61h-7.49v-5.97h6.32c5.21 0 8.96-2.75 8.96-6.67 0-3.69-3.45-6.09-7.9-6.09-3.45 0-7.14 1.23-11.07 3.75l-3.1-4.92c3.75-3.1 9.36-5.04 14.69-5.04 4.28 0 7.67 1.11 10.3 3.34 2.63 2.17 3.92 4.86 3.92 8.08 0 4.39-2.58 7.84-7.32 9.48v.24c5.38 1.23 8.54 5.27 8.54 10.65 0 3.81-1.52 6.91-4.5 9.31-2.99 2.4-6.97 3.63-12 3.63-5.14-.02-10.06-1.48-14.8-4.4m72.94-6.68c2.98-2.98 4.51-6.73 4.51-11.18 0-4.51-1.52-8.31-4.51-11.3-2.99-2.98-6.62-4.51-10.95-4.51-4.27 0-7.96 1.52-10.95 4.56-2.98 2.99-4.45 6.73-4.45 11.24 0 4.39 1.47 8.14 4.39 11.12 2.99 2.99 6.62 4.51 11.01 4.51 4.33.01 7.96-1.45 10.95-4.44m-26.99 4.68c-4.27-4.28-6.38-9.54-6.38-15.75 0-6.26 2.17-11.59 6.56-15.98s9.66-6.62 15.86-6.62c6.26 0 11.53 2.17 15.92 6.56 4.39 4.39 6.56 9.66 6.56 15.86s-2.17 11.47-6.56 15.81c-4.39 4.33-9.72 6.5-16.1 6.5-6.26 0-11.59-2.1-15.86-6.38" clip-path="url(#SVGID_10_)"/><path d="M681.44 591.77v17.97h-20.6v-17.97h-6.73v43.25h6.73v-18.79h20.6v18.79h6.74v-43.25zm34.9 10.71l5.85 15.69h-11.71l5.86-15.69zm-2.17-10.71l-17.21 43.26h7.26l4.1-10.66h15.92l4.1 10.66h7.26l-17.04-43.26h-4.39z"/><path fill="#ed2124" d="M353.09 479.31h-31.05l-15.53 19.41 46.58 46.57 46.57-46.57-15.52-19.41v34.93z"/><defs><path id="SVGID_11_" d="M240.55 364.28h518.89v271.45H240.55z"/></defs><clipPath id="SVGID_12_"><use xlink:href="#SVGID_11_" overflow="visible"/></clipPath><path d="M421.21 409.5c-3.38 0-6.56.86-9.34 2.36 5.6-3.45 9.34-9.64 9.34-16.71 0-10.83-8.78-19.61-19.61-19.61s-19.61 8.78-19.61 19.61c0 7.06 3.74 13.25 9.34 16.71a19.5 19.5 0 00-9.34-2.36c-10.83 0-19.61 8.78-19.61 19.61s8.78 19.61 19.61 19.61 19.61-8.78 19.61-19.61c0-7.06-3.74-13.25-9.34-16.71a19.5 19.5 0 009.34 2.36c3.38 0 6.56-.86 9.34-2.36-5.6 3.45-9.34 9.64-9.34 16.71 0 10.83 8.78 19.61 19.61 19.61s19.61-8.78 19.61-19.61-8.78-19.61-19.61-19.61" clip-path="url(#SVGID_12_)" fill="#ed2124"/><path d="M728.02 364.28v3.66h4.17v11.39h3.85v-11.39h4.16v-3.66zm28.59 0l-5.4 7.74-5.41-7.74h-2.81v15.05h3.72v-7.23l3.77 5.27h1.43l3.77-5.27v7.23h3.77v-15.05z"/></svg>