<svg version="1.2" baseProfile="tiny-ps" xmlns="http://www.w3.org/2000/svg" width="845" height="306"><style/><path id="Сочи Гольф Резорт" fill-rule="evenodd" d="M87.28 80.09v21.27a67.967 67.967 0 01-15.21 5.71C66.8 108.35 61.29 109 55.56 109c-17.11 0-30.67-4.78-40.67-14.32-10-9.59-15-22.57-15-38.95 0-16.42 5-29.4 15-38.95C24.89 7.19 38.45 2.4 55.56 2.4c5.73 0 11.24.64 16.51 1.93a67.484 67.484 0 0115.21 5.71V31.3c-4.91-3.35-9.75-5.8-14.52-7.36-4.77-1.56-9.79-2.34-15.07-2.34-9.45 0-16.88 3.03-22.29 9.08-5.42 6.06-8.12 14.41-8.12 25.05 0 10.6 2.7 18.93 8.12 24.98 5.41 6.06 12.84 9.09 22.29 9.09 5.28 0 10.3-.78 15.07-2.34 4.77-1.56 9.61-4.02 14.52-7.37zm45.98-52.02c13.25 0 23.6 3.58 31.03 10.73 7.48 7.16 11.22 17.07 11.22 29.73s-3.74 22.57-11.22 29.73c-7.43 7.16-17.78 10.74-31.03 10.74-13.31 0-23.72-3.58-31.25-10.74C94.54 91.1 90.8 81.19 90.8 68.53s3.74-22.57 11.21-29.73c7.53-7.15 17.94-10.73 31.25-10.73zm0 17.62c-5.46 0-9.64 1.97-12.53 5.91-2.84 3.9-4.27 9.55-4.27 16.93 0 7.39 1.43 13.05 4.27 17 2.89 3.9 7.07 5.85 12.53 5.85 5.36 0 9.47-1.95 12.31-5.85 2.85-3.95 4.27-9.61 4.27-17 0-7.38-1.42-13.03-4.27-16.93-2.84-3.94-6.95-5.91-12.31-5.91zM250.8 107h-24.64V77.2h-25.32c-6.89 0-12.23-2.02-16.04-6.05-3.81-4.09-5.71-10.12-5.71-18.1V29.93h24.64v13.69c0 8.17.66 13.28 1.99 15.35 1.33 2.02 3.74 3.02 7.23 3.02h13.21V29.93h24.64V107zm65.72-77.07h25.6V107h-24.64V65.99L292.64 107h-25.6V29.93h24.64v41.01l24.84-41.01zM419.34 107h-26.5V4.26h73.02v20.02h-46.52V107zm87.33-78.93c13.26 0 23.6 3.58 31.03 10.73 7.48 7.16 11.22 17.07 11.22 29.73s-3.74 22.57-11.22 29.73c-7.43 7.16-17.77 10.74-31.03 10.74-13.31 0-23.72-3.58-31.24-10.74-7.48-7.16-11.22-17.07-11.22-29.73s3.74-22.57 11.22-29.73c7.52-7.15 17.93-10.73 31.24-10.73zm0 17.62c-5.46 0-9.63 1.97-12.53 5.91-2.84 3.9-4.26 9.55-4.26 16.93 0 7.39 1.42 13.05 4.26 17 2.9 3.9 7.07 5.85 12.53 5.85 5.37 0 9.47-1.95 12.32-5.85 2.84-3.95 4.26-9.61 4.26-17 0-7.38-1.42-13.03-4.26-16.93-2.85-3.94-6.95-5.91-12.32-5.91zM551.2 107V89.38c8.12-1.65 13.09-5.16 14.93-10.53 1.38-4.08 2.06-16.19 2.06-36.33V29.93h66.62V107h-24.64V47.54h-17.34v2.55c0 20.14-1.58 33.15-4.75 39.02-6.42 11.93-18.72 17.89-36.88 17.89zm95.72 0V29.93h24.64v29.24h13.97c10.41 0 18.42 1.91 24.02 5.72 5.64 3.85 8.46 9.95 8.46 18.3 0 8.35-2.82 14.41-8.46 18.17-5.6 3.76-13.61 5.64-24.02 5.64h-38.61zm48.04-24.09c0-2.89-.92-5.04-2.76-6.46-1.79-1.38-4.51-2.07-8.18-2.07h-12.46v17.21h12.46c3.62 0 6.35-.74 8.18-2.21 1.84-1.42 2.76-3.58 2.76-6.47zm75.29-49.82V-.08h24.63v33.17c4.86-3.35 10.62-5.02 17.27-5.02 9.5 0 17.3 3.78 23.4 11.35 6.1 7.53 9.15 17.23 9.15 29.11 0 11.88-3.05 21.61-9.15 29.18-6.1 7.52-13.9 11.29-23.4 11.29-6.65 0-12.41-1.68-17.27-5.03v32.35h-24.63v-32.35c-4.87 3.35-10.63 5.03-17.28 5.03-9.49 0-17.29-3.77-23.39-11.29-6.11-7.57-9.16-17.3-9.16-29.18 0-11.88 3.05-21.58 9.16-29.11 6.1-7.57 13.9-11.35 23.39-11.35 6.65 0 12.41 1.67 17.28 5.02zm-11.57 12.87c-2.98 0-5.87 1.93-8.67 5.78-2.75 3.85-4.13 9.45-4.13 16.79s1.38 12.94 4.13 16.79c2.8 3.86 5.69 5.78 8.67 5.78 4.91 0 8.77-1.69 11.57-5.09V51.05c-2.8-3.39-6.66-5.09-11.57-5.09zm47.76 0c-4.91 0-8.76 1.7-11.56 5.09v34.96c2.8 3.4 6.65 5.09 11.56 5.09 2.98 0 5.85-1.92 8.6-5.78 2.8-3.85 4.2-9.45 4.2-16.79s-1.4-12.94-4.2-16.79c-2.75-3.85-5.62-5.78-8.6-5.78zM184.42 276V173.26h43.98c13.07 0 23.1 2.91 30.07 8.74 7.02 5.78 10.53 14.04 10.53 24.77 0 10.78-3.51 19.09-10.53 24.91-6.97 5.78-17 8.67-30.07 8.67h-17.48V276h-26.5zm41.16-83.54h-14.66v28.69h14.66c5.13 0 9.1-1.23 11.9-3.71 2.8-2.53 4.2-6.08 4.2-10.67s-1.4-8.12-4.2-10.6c-2.8-2.47-6.77-3.71-11.9-3.71zm126.41 44.8v7.02H294.4c.59 5.78 2.68 10.11 6.26 13 3.58 2.89 8.58 4.34 15 4.34 5.18 0 10.48-.76 15.9-2.27 5.45-1.56 11.05-3.9 16.79-7.02v18.99c-5.83 2.2-11.66 3.88-17.48 5.02a93.285 93.285 0 01-17.48 1.66c-13.95 0-24.8-3.54-32.55-10.6-7.71-7.11-11.56-17.07-11.56-29.87 0-12.57 3.78-22.45 11.35-29.66 7.62-7.2 18.08-10.8 31.38-10.8 12.11 0 21.79 3.65 29.04 10.94 7.3 7.29 10.94 17.04 10.94 29.25zm-57.32-8.19h32c0-4.68-1.38-8.44-4.13-11.29-2.71-2.89-6.26-4.33-10.67-4.33-4.77 0-8.64 1.35-11.63 4.06-2.98 2.66-4.84 6.51-5.57 11.56zm72.4 14.11v-15.21h11.28c6.75 0 11.34-.74 13.77-2.21 2.47-1.46 3.71-3.21 3.71-5.23 0-4.72-5.41-7.08-16.24-7.08-9.03 0-16.35 1.58-21.95 4.75v-17.83c8.35-2.2 17.46-3.3 27.32-3.3 11.56 0 20 1.65 25.32 4.95 5.33 3.26 7.99 8.35 7.99 15.28 0 9.08-5.03 14.8-15.07 17.14 11.33 2.79 16.99 9.35 16.99 19.68 0 7.93-3.12 13.9-9.35 17.89C404.6 276 394.8 278 381.45 278c-9.95 0-19.06-1.29-27.32-3.86v-18.99c10.28 4.31 18.47 6.47 24.57 6.47 6.7 0 11.54-.9 14.52-2.69 3.03-1.83 4.54-3.9 4.54-6.19 0-6.38-6.61-9.56-19.82-9.56h-10.87zm99.03-46.11c13.26 0 23.6 3.58 31.03 10.73 7.48 7.16 11.22 17.07 11.22 29.73s-3.74 22.57-11.22 29.73C489.7 274.42 479.36 278 466.1 278c-13.31 0-23.72-3.58-31.24-10.74-7.48-7.16-11.22-17.07-11.22-29.73s3.74-22.57 11.22-29.73c7.52-7.15 17.93-10.73 31.24-10.73zm0 17.62c-5.46 0-9.64 1.97-12.53 5.91-2.84 3.9-4.26 9.55-4.26 16.93 0 7.39 1.42 13.05 4.26 17 2.89 3.9 7.07 5.85 12.53 5.85 5.37 0 9.47-1.95 12.32-5.85 2.84-3.95 4.26-9.61 4.26-17 0-7.38-1.42-13.03-4.26-16.93-2.85-3.94-6.95-5.91-12.32-5.91zm73.22 50.16v40.47h-24.63V198.93h24.63v11.28c3.4-4.49 7.16-7.8 11.29-9.91 4.13-2.15 8.87-3.23 14.24-3.23 9.5 0 17.3 3.78 23.4 11.35 6.1 7.53 9.15 17.23 9.15 29.11 0 11.88-3.05 21.61-9.15 29.18-6.1 7.52-13.9 11.29-23.4 11.29-5.37 0-10.11-1.06-14.24-3.17-4.13-2.16-7.89-5.48-11.29-9.98zm16.38-49.89c-5.28 0-9.34 1.95-12.18 5.85-2.8 3.85-4.2 9.43-4.2 16.72 0 7.3 1.4 12.89 4.2 16.79 2.84 3.86 6.9 5.78 12.18 5.78 5.28 0 9.29-1.92 12.04-5.78 2.8-3.85 4.2-9.45 4.2-16.79s-1.4-12.94-4.2-16.79c-2.75-3.85-6.76-5.78-12.04-5.78zm37.03-.82v-15.21h80.51v15.21H645.3V276h-24.57v-61.86h-28z" fill="#000"/></svg>