<svg version="1.2" baseProfile="tiny-ps" xmlns="http://www.w3.org/2000/svg" width="868" height="256"><style>.shp0{fill:#ed1c24}</style><g id="Layer"><path id="Layer" class="shp0" d="M53.22.16c29.11 0 52.7 23.59 52.7 52.7v150.42c0 29.1-23.6 52.7-52.7 52.7S.53 232.39.53 203.28V52.86C.52 23.76 24.12.16 53.22.16zM250.55 129.2l36.72 36.72c20.58 20.58 20.58 53.94 0 74.52-20.49 20.49-53.65 20.58-74.26.27-20.13-20.71-20.13-53.28-.26-73.71l.53-.54 10.73-10.72 26.54-26.54z"/><path id="Layer" class="shp0" d="M208.64 164.13l-.54.54c-18.42 18.95-19.76 48.35-4.01 68.81l-.32.3-69.48-69.47c-20.75-20.75-20.75-54.12-.17-74.69l73.98-73.98c20.58-20.58 53.94-20.58 74.52 0s20.58 53.94 0 74.53l-63.26 63.25-10.72 10.71zm488.1-40.99l-7.04-13.92c-.84-1.67-1.83-3.02-2.95-4.04s-2.52-1.72-4.21-2.1l13.59-18.16c.14-.2.19-.37.14-.51-.04-.14-.2-.21-.48-.22h-1.28c-.4-.01-.7.03-.89.12-.2.09-.38.25-.56.5l-13.19 17.83c-.2-.02-.41-.04-.65-.04-.24-.01-.49-.01-.74-.01h-6.93V84.93c.01-.27-.05-.46-.15-.57-.1-.1-.27-.15-.52-.15h-1.17c-.28 0-.47.05-.57.15-.11.11-.16.3-.15.57v38.22c0 .27.05.46.15.57.1.11.3.16.57.15h1.17c.25.01.42-.05.52-.15.1-.11.15-.3.15-.57v-18.22h7.1c2.3-.01 4.1.42 5.4 1.27 1.3.86 2.39 2.2 3.26 4.04l6.54 13.02c.12.25.28.41.46.49.19.09.5.13.93.12h1.12c.28-.01.44-.08.49-.22.04-.13.01-.31-.11-.51z"/><path id="Layer" fill-rule="evenodd" class="shp0" d="M761.79 87.41c2.18 2.11 3.3 5.1 3.34 8.96-.03 3.8-1.14 6.76-3.32 8.87-2.17 2.1-5.18 3.17-9.02 3.2h-13.2v14.7c.01.27-.04.47-.14.57-.1.1-.27.16-.52.15h-1.17c-.28.01-.47-.04-.57-.15-.1-.11-.15-.3-.15-.57V84.92c-.01-.27.04-.46.15-.57.11-.1.29-.15.57-.15h15.03c3.82.03 6.82 1.1 9 3.21zm-1.99 16.09c1.74-1.68 2.63-4.05 2.66-7.12-.03-3.1-.91-5.5-2.66-7.2-1.74-1.7-4.15-2.56-7.23-2.58H739.6v19.45h12.97c3.08-.02 5.49-.87 7.23-2.55zm14.48-16.39c2.56-2.42 6.3-3.65 11.23-3.69 4.88.04 8.59 1.27 11.14 3.69 2.54 2.42 3.83 5.79 3.84 10.11v13.64c-.02 4.32-1.3 7.69-3.84 10.11-2.55 2.42-6.26 3.65-11.14 3.69-4.93-.04-8.67-1.27-11.23-3.69-2.56-2.42-3.85-5.8-3.86-10.11V97.22c.01-4.32 1.29-7.69 3.86-10.11zm20.44 1.72c-2.11-1.98-5.19-2.99-9.23-3.02-4.09.03-7.2 1.04-9.32 3.02s-3.19 4.78-3.2 8.39v13.64c.01 3.61 1.08 6.41 3.2 8.39 2.12 1.98 5.23 2.99 9.32 3.02 4.05-.03 7.12-1.04 9.23-3.02 2.11-1.99 3.18-4.78 3.19-8.39V97.22c-.01-3.61-1.07-6.41-3.19-8.39zm38.54-1.42c2.18 2.11 3.3 5.1 3.34 8.96-.03 3.8-1.14 6.76-3.32 8.87-2.17 2.1-5.18 3.17-9.02 3.2h-13.19v14.7c0 .27-.05.46-.15.57-.1.1-.28.16-.52.15h-1.17c-.27.01-.46-.04-.57-.15-.11-.11-.15-.3-.15-.57V84.92c0-.27.04-.46.15-.57.11-.1.29-.15.57-.15h15.03c3.81.03 6.82 1.1 9 3.21zm-1.99 16.09c1.74-1.68 2.63-4.05 2.66-7.12-.03-3.1-.92-5.5-2.66-7.2-1.74-1.7-4.15-2.56-7.23-2.58h-12.97v19.45h12.97c3.08-.02 5.49-.87 7.23-2.55z"/><path id="Layer" class="shp0" d="M866.75 84.19h-26.82c-.27-.01-.46.04-.57.15-.1.11-.16.3-.15.57v1c-.01.24.04.42.15.52.11.1.3.15.57.15h12.13v36.55c-.01.27.04.46.15.57.1.11.29.16.57.16h1.17c.25 0 .42-.05.52-.16.1-.11.15-.3.15-.57V86.58h12.13c.28 0 .47-.04.57-.15.11-.1.16-.28.15-.52v-1c.01-.27-.05-.47-.15-.57-.1-.1-.3-.15-.57-.15zm-135 0h-1.39c-.38-.01-.66.02-.84.1-.18.07-.35.24-.51.52l-13.24 20.06-13.24-20.06c-.13-.27-.28-.45-.45-.52-.18-.07-.45-.11-.83-.1h-1.51c-.25.01-.4.07-.46.22-.06.14-.04.31.07.51l14.95 22.31-9.57 15.91c-.19.29-.17.47-.06.57.11.11.3.16.57.16h1.57c.25 0 .42-.05.53-.16.1-.1.16-.29.36-.57l9.32-15.59 15.14-22.63c.11-.2.14-.37.07-.51s-.23-.21-.48-.22zm-377.3 53.47h20.04s4.66.12 5.26.12c1.2 0 2.08.18 2.64.53.56.35.84 1.09.84 2.2v38.94c0 .49-.08.89-.25 1.19-.16.3-.4.53-.7.68-.3.15-.67.25-1.1.29-.43.04-.91.06-1.43.06-.6 0-1.21-.04-1.83-.12-.62-.09-1.19-.22-1.69-.4-.51-.19-.93-.44-1.26-.76-.33-.32-.49-.72-.49-1.19v-34.04h-20.03v34.04c0 .5-.17.9-.51 1.22-.34.32-.77.57-1.3.76-.53.19-1.1.32-1.71.39-.61.07-1.17.1-1.69.1-.6 0-1.12-.02-1.55-.07-.43-.05-.8-.15-1.1-.31-.3-.15-.52-.38-.66-.68-.15-.3-.22-.69-.22-1.16v-38.94c0-.93.29-1.62.85-2.06.57-.44 1.46-.67 2.68-.67.6.01 5.21-.12 5.21-.12z"/><path id="Layer" fill-rule="evenodd" class="shp0" d="M410.47 181.5c-2.96 0-5.49-.26-7.6-.81-2.11-.54-3.88-1.28-5.32-2.24-1.43-.96-2.58-2.12-3.44-3.46-.85-1.34-1.51-2.83-1.97-4.46-.45-1.64-.75-3.38-.89-5.24-.13-1.86-.2-3.79-.2-5.79v-.19c0-1.98.07-3.91.2-5.78.14-1.87.43-3.62.89-5.25.45-1.63 1.11-3.12 1.97-4.47.86-1.35 2.01-2.49 3.44-3.45 1.44-.96 3.21-1.71 5.32-2.25 2.1-.53 4.64-.8 7.6-.8h.25c2.96 0 5.49.27 7.6.8 2.11.54 3.88 1.29 5.32 2.25 1.44.96 2.58 2.11 3.44 3.45.86 1.34 1.51 2.83 1.97 4.47.45 1.63.75 3.38.89 5.25.13 1.87.2 3.8.2 5.78v.19c0 1.98-.07 3.91-.2 5.78-.14 1.87-.43 3.62-.89 5.26-.45 1.64-1.11 3.12-1.97 4.46-.86 1.34-2 2.5-3.44 3.46s-3.21 1.71-5.32 2.24c-2.1.54-4.64.81-7.6.81h-.25v-.01zm-.06-36.57c-2.3 0-4.14.25-5.54.76-1.39.51-2.46 1.31-3.21 2.39-.75 1.09-1.24 2.49-1.49 4.2-.24 1.72-.37 3.77-.37 6.17v1.92c0 2.4.12 4.46.37 6.17.25 1.72.74 3.11 1.49 4.2.74 1.08 1.82 1.88 3.21 2.39 1.4.51 3.24.76 5.54.76h.37c2.3 0 4.14-.25 5.53-.76 1.39-.51 2.46-1.31 3.21-2.39.75-1.09 1.24-2.49 1.49-4.2.25-1.72.37-3.77.37-6.17v-1.92c0-2.4-.12-4.45-.37-6.17-.25-1.72-.74-3.11-1.49-4.2-.74-1.09-1.81-1.88-3.21-2.39-1.39-.51-3.24-.76-5.53-.76h-.37z"/><path id="Layer" class="shp0" d="M442.03 177.28c-.35 1.06-.72 1.88-1.12 2.46-.39.59-.83 1.03-1.31 1.32-.48.29-1.02.46-1.61.53-.59.06-1.27.09-2.03.09-.57 0-1.11-.1-1.61-.31s-.88-.54-1.16-1.01c-.28-.46-.43-1.07-.45-1.83-.02-.75.17-1.69.56-2.8l11.46-32.74c.5-1.44 1.06-2.55 1.7-3.31.65-.77 1.32-1.32 2.03-1.66.72-.34 1.46-.54 2.22-.59.76-.05 1.53-.08 2.29-.08h1.37c.76 0 1.53.02 2.3.08.76.05 1.5.25 2.21.59.71.34 1.39.89 2.03 1.66.64.76 1.21 1.87 1.71 3.31l11.46 32.74c.39 1.11.58 2.05.56 2.8-.02.76-.17 1.37-.45 1.83-.29.47-.67.81-1.17 1.01-.5.21-1.04.31-1.61.31-.76 0-1.44-.03-2.03-.09-.59-.06-1.13-.23-1.61-.53-.49-.29-.92-.73-1.32-1.32-.4-.59-.76-1.41-1.12-2.46l-10.6-31.38c-.1-.31-.2-.55-.29-.73-.1-.18-.22-.26-.39-.26h-.75c-.16 0-.29.09-.39.26-.09.18-.19.42-.29.73l-10.59 31.38zm88.57-21.57h15.15c1.53 0 2.67 0 3.41.01.75.01 1.23.02 1.45.05V140.4c0-.45.16-.87.48-1.24.32-.37.73-.69 1.24-.95a7.17 7.17 0 011.71-.59c.63-.13 1.24-.2 1.84-.2 1.2 0 2.08.18 2.64.53.56.35.84 1.09.84 2.2v39.3c0 .5-.08.9-.24 1.2-.17.3-.4.53-.7.68-.3.15-.67.25-1.1.29-.43.04-.91.06-1.43.06-.6 0-1.21-.04-1.83-.12-.62-.08-1.19-.21-1.69-.4-.51-.19-.93-.44-1.26-.76-.33-.32-.5-.72-.5-1.2v-15.93H530.6v15.93c0 .5-.17.9-.51 1.23-.34.32-.77.57-1.3.76-.53.19-1.09.32-1.71.39-.61.07-1.17.11-1.69.11-.6 0-1.12-.02-1.55-.08-.43-.05-.81-.15-1.1-.31-.3-.15-.52-.38-.67-.68-.15-.3-.21-.69-.21-1.16v-39.3c0-.93.29-1.62.85-2.06.57-.45 1.46-.67 2.68-.67.6 0 1.21.05 1.83.15.62.1 1.18.27 1.68.5.49.23.9.53 1.22.91.32.38.48.85.48 1.41v15.31z"/><path id="Layer" fill-rule="evenodd" class="shp0" d="M594.49 172.64h-19.81l-1.57 4.65c-.34 1.05-.72 1.88-1.11 2.46-.39.59-.83 1.02-1.32 1.32-.49.29-1.03.46-1.61.53-.59.06-1.27.09-2.03.09-.58 0-1.12-.1-1.61-.29-.5-.2-.89-.53-1.16-.99-.28-.46-.43-1.08-.45-1.84-.02-.77.2-1.83.6-2.94l11.41-32.55c.5-1.44 1.06-2.55 1.7-3.31.64-.77 1.32-1.32 2.03-1.66.72-.34 1.45-.54 2.22-.59.76-.05 1.53-.08 2.29-.08h1.06c.77 0 1.53.03 2.3.08.76.05 1.5.25 2.21.59.72.34 1.39.89 2.03 1.66.64.76 1.21 1.87 1.71 3.31l11.45 32.67c.39 1.12.58 2.05.56 2.82-.02.76-.17 1.38-.45 1.84-.28.47-.67.8-1.17.99-.49.2-1.03.29-1.61.29-.76 0-1.44-.03-2.05-.09-.6-.06-1.14-.23-1.63-.53-.49-.29-.92-.73-1.32-1.32-.39-.59-.71-1.37-1.09-2.46l-1.58-4.65zm-17.45-6.95h15.13l-6.67-19.72c-.1-.31-.2-.55-.29-.73-.09-.17-.22-.26-.39-.26h-.43c-.16 0-.3.09-.38.26-.1.18-.19.42-.3.73l-6.67 19.72zm-72.87-.2h-8.48l-8.22 14.4c-.37.66-.93 1.13-1.68 1.4a6.5 6.5 0 01-2.24.4c-.3 0-.69-.02-1.14-.06-.46-.04-.92-.11-1.4-.22-.47-.1-.93-.23-1.36-.4-.44-.17-.8-.38-1.09-.64-.29-.26-.47-.56-.53-.9-.06-.34.03-.74.28-1.2l8.37-14.24a16.99 16.99 0 01-3.32-1.62c-1.06-.66-1.99-1.48-2.78-2.48-.79-1-1.43-2.17-1.91-3.53-.48-1.36-.71-2.94-.71-4.89 0-2.13.32-3.96.96-5.49.64-1.54 1.48-2.82 2.53-3.87a12.41 12.41 0 013.58-2.5c1.34-.62 2.73-1.08 4.13-1.39 1.41-.31 3.53-.59 4.55-.59h14.79c.81 0 1.48.1 2.01.32.52.22.96.49 1.3.81.35.32.6.67.75 1.04.16.38.27.72.36 1.37v38.24c0 .48-.13.86-.36 1.16-.24.31-.56.54-.96.69-.4.16-.87.26-1.4.31-.52.06-1.09.08-1.69.08-.51 0-1.03-.02-1.56-.06-.53-.04-1-.14-1.4-.29-.4-.16-.73-.39-.99-.69-.26-.31-.39-.7-.39-1.2v-13.96zm0-20.26h-7.8c-1.79 0-3.55.14-4.85.42-1.3.28-2.18.62-2.91 1.16-.73.54-1.21 1.13-1.46 1.91-.25.79-.48 1.54-.48 2.87.02.96.21 2.09.48 2.82.27.74.76 1.36 1.46 1.88.7.52 1.68.91 2.93 1.18 1.25.27 2.85.4 4.84.42l7.77-.01.02-12.64v-.01zM403.53 84.2c1.17 0 2.45.05 3.81.14 1.37.09 2.73.29 4.1.6 1.36.31 2.67.77 3.92 1.38 1.25.61 2.36 1.43 3.33 2.45.98 1.03 1.75 2.29 2.33 3.8.58 1.51.87 3.33.87 5.45v.12c0 2.07-.26 3.85-.79 5.33-.53 1.49-1.23 2.74-2.13 3.77-.89 1.03-1.92 1.84-3.09 2.46-1.18.62-2.43 1.1-3.74 1.44-1.31.34-2.64.58-4 .7-1.36.13-2.66.19-3.92.19h-7.87v13.76c0 .49-.13.89-.39 1.19-.26.3-.59.53-.99.68-.4.15-.87.26-1.4.29-.53.04-1.05.06-1.56.06-.6 0-1.16-.02-1.69-.08-.53-.05-.99-.15-1.4-.31-.4-.15-.72-.38-.96-.68-.24-.3-.36-.69-.36-1.16V87.73c0-.17.01-.28.03-.34.06-.31.17-.65.33-1.02.15-.37.4-.72.74-1.04.34-.32.78-.59 1.31-.81.53-.22 1.19-.32 2-.32h11.52zm-7.17 20.28h-.02.02zm1.61-.02c.61-.01 1.24-.01 1.89-.01h3.68v-.03h.25c2.04 0 3.68-.13 4.91-.4 1.22-.26 2.17-.65 2.82-1.16.65-.51 1.08-1.14 1.29-1.88.21-.74.32-1.6.34-2.57v-.59c-.02-.95-.13-1.79-.32-2.52a3.67 3.67 0 00-1.22-1.87c-.62-.52-1.52-.92-2.68-1.2-1.17-.28-2.72-.43-4.66-.45-.19.02-.35.03-.48.02-.14-.01-.23-.02-.3-.02h-7.13v12.7c.47 0 1.01-.01 1.61-.02z"/><path id="Layer" class="shp0" d="M484.27 83.9c2.13 0 4.05.15 5.78.46 1.72.31 3.19.75 4.4 1.33 1.21.58 2.14 1.28 2.79 2.09.65.82.98 1.73.98 2.74 0 .37-.06.76-.19 1.18-.12.41-.32.79-.57 1.13-.26.34-.6.62-1.02.84-.43.22-.93.32-1.51.32-.52 0-.98-.06-1.38-.19-.4-.12-.82-.28-1.24-.46-.42-.19-.88-.39-1.38-.62-.5-.23-1.08-.43-1.75-.62-.67-.18-1.46-.34-2.37-.46-.91-.12-1.98-.18-3.22-.18h-.44c-2.3 0-4.14.26-5.53.78-1.4.51-2.47 1.32-3.21 2.41-.75 1.1-1.24 2.5-1.49 4.22-.25 1.72-.37 3.77-.37 6.17v1.92c0 2.4.12 4.45.37 6.17.25 1.72.74 3.11 1.49 4.2.74 1.09 1.81 1.88 3.21 2.39 1.39.51 3.23.76 5.53.76h.44c1.24 0 2.31-.06 3.22-.18.91-.12 1.7-.28 2.37-.47.67-.18 1.25-.4 1.75-.62.5-.23.96-.43 1.38-.62.43-.18.84-.34 1.24-.47.4-.12.86-.18 1.38-.18.58 0 1.08.11 1.51.34.42.23.76.51 1.02.85.26.34.45.71.57 1.12.12.4.19.79.19 1.16 0 1.01-.33 1.93-.98 2.74-.65.82-1.58 1.51-2.79 2.09-1.21.58-2.68 1.03-4.4 1.33-1.73.31-3.65.47-5.78.47h-1.06c-2.95 0-5.49-.26-7.59-.79-2.11-.53-3.88-1.27-5.32-2.23-1.44-.96-2.59-2.11-3.45-3.46-.86-1.34-1.51-2.83-1.97-4.47a26.58 26.58 0 01-.88-5.22c-.14-1.85-.2-3.78-.2-5.78v-.18c0-1.99.07-3.91.2-5.78s.43-3.62.88-5.26c.45-1.63 1.11-3.12 1.97-4.46.86-1.34 2.01-2.49 3.45-3.45 1.44-.96 3.2-1.71 5.32-2.24 2.1-.54 4.64-.81 7.59-.81h1.06v-.01zm27.68 18.29h15.16c1.53 0 2.67.01 3.42.01.74.01 1.23.03 1.45.05V86.87c0-.45.16-.87.48-1.24.32-.37.74-.69 1.25-.94.5-.26 1.08-.46 1.7-.59.63-.13 1.25-.2 1.84-.2 1.2 0 2.08.17 2.63.53.56.35.84 1.08.84 2.2v39.18c0 .49-.09.89-.25 1.19-.16.3-.4.53-.7.68-.3.15-.67.25-1.1.29-.43.04-.91.06-1.42.06-.6 0-1.21-.04-1.83-.12-.62-.08-1.19-.22-1.69-.4-.51-.19-.93-.44-1.26-.76-.33-.32-.5-.72-.5-1.2v-15.81h-20.03v15.81c0 .5-.17.9-.51 1.23-.34.32-.77.57-1.3.76-.53.19-1.1.32-1.71.39-.61.07-1.17.11-1.69.11-.6 0-1.11-.03-1.55-.08-.43-.05-.8-.15-1.1-.31-.3-.15-.52-.38-.66-.68-.15-.31-.22-.69-.22-1.17V86.62c0-.93.28-1.62.86-2.06.56-.45 1.45-.67 2.68-.67.6 0 1.21.05 1.83.15.62.1 1.18.27 1.68.5.5.22.9.53 1.22.91.32.38.48.85.48 1.41v15.33z"/><path id="Layer" fill-rule="evenodd" class="shp0" d="M575.85 119.12h-19.81l-1.52 4.52c-.35 1.05-.72 1.88-1.12 2.46-.39.59-.83 1.03-1.32 1.32-.48.29-1.02.47-1.61.53-.59.06-1.27.1-2.03.1-.58 0-1.12-.1-1.61-.3-.5-.19-.88-.53-1.16-.99-.28-.47-.43-1.08-.45-1.85-.02-.76.17-1.7.56-2.82l11.41-32.55c.5-1.44 1.06-2.55 1.7-3.32.64-.76 1.32-1.31 2.03-1.66.71-.34 1.45-.54 2.22-.59.76-.05 1.53-.07 2.29-.07h1.05c.77 0 1.53.02 2.3.07.76.05 1.5.25 2.21.59.71.34 1.39.89 2.03 1.66.64.76 1.21 1.87 1.71 3.32l11.41 32.55c.39 1.12.58 2.06.55 2.82-.02.77-.17 1.38-.45 1.85-.28.46-.67.8-1.17.99-.49.2-1.03.3-1.61.3-.76 0-1.45-.03-2.05-.1-.6-.06-1.14-.23-1.63-.53-.49-.29-.93-.73-1.32-1.32-.39-.59-.75-1.41-1.09-2.46l-1.52-4.52zm-17.45-6.95h15.13l-6.67-19.71c-.1-.31-.2-.56-.3-.73-.09-.18-.22-.26-.39-.26h-.43c-.16 0-.29.09-.38.26-.09.17-.19.42-.29.73l-6.67 19.71zm58.11-.15h-8.49l-8.1 14.22c-.37.66-.93 1.13-1.68 1.39-.75.28-1.5.41-2.24.41a12.263 12.263 0 01-2.55-.28c-.47-.1-.92-.23-1.36-.4-.44-.17-.8-.38-1.09-.64a1.55 1.55 0 01-.52-.9c-.07-.35.03-.75.27-1.2l8.26-14.06c-1.16-.41-2.27-.95-3.32-1.61-1.06-.67-1.98-1.49-2.78-2.49-.8-.99-1.43-2.16-1.91-3.52-.48-1.36-.71-2.94-.71-4.89 0-2.13.32-3.96.96-5.49.64-1.53 1.49-2.81 2.53-3.86 1.05-1.04 2.25-1.88 3.59-2.5 1.34-.62 2.72-1.09 4.13-1.4 1.41-.31 3.53-.59 4.55-.59 1.34 0 2.14-.01 3.31-.01h11.49c.8 0 1.47.11 2 .33.53.22.97.49 1.31.81.34.32.59.67.74 1.04.16.37.27.71.36 1.36v38.1c0 .47-.12.86-.36 1.16-.24.3-.56.53-.96.68-.4.16-.87.27-1.4.32a20.791 20.791 0 01-3.26.01c-.52-.04-.99-.14-1.39-.29-.4-.16-.73-.39-.99-.69-.26-.3-.39-.69-.39-1.19v-13.82zm0-20.25h-7.79c-1.8 0-3.56.14-4.86.42-1.3.28-2.18.62-2.91 1.16-.72.54-1.21 1.12-1.46 1.91-.25.79-.48 1.55-.48 2.87.02.96.21 2.09.48 2.82.27.74.76 1.37 1.46 1.88.7.52 1.68.91 2.93 1.18 1.25.27 2.85.4 4.84.42h7.76l.03-12.65v-.01zm-165.99 27.35h-19.81l-1.52 4.52c-.35 1.05-.72 1.88-1.12 2.46-.39.59-.83 1.03-1.31 1.32-.49.29-1.02.47-1.61.53-.59.06-1.27.1-2.03.1-.58 0-1.12-.1-1.61-.3-.49-.19-.88-.53-1.16-.99-.28-.47-.43-1.08-.45-1.85-.02-.76.17-1.7.56-2.82l11.41-32.55c.5-1.44 1.06-2.55 1.71-3.32.64-.76 1.32-1.31 2.03-1.66.71-.34 1.45-.54 2.22-.59.76-.05 1.53-.07 2.3-.07h1.06c.76 0 1.53.02 2.29.07.77.05 1.5.25 2.22.59.71.34 1.39.89 2.03 1.66.64.76 1.21 1.87 1.7 3.32l11.41 32.55c.4 1.12.58 2.06.56 2.82-.02.77-.17 1.38-.45 1.85-.28.46-.66.8-1.16.99-.49.2-1.03.3-1.61.3-.76 0-1.45-.03-2.05-.1-.6-.06-1.14-.23-1.63-.53-.48-.29-.92-.73-1.32-1.32-.39-.59-.75-1.41-1.09-2.46l-1.57-4.52zm-17.46-6.95h15.13l-6.67-19.71c-.11-.31-.2-.56-.3-.73-.09-.18-.22-.26-.39-.26h-.43c-.16 0-.29.09-.39.26-.09.17-.19.42-.29.73l-6.66 19.71z"/><path id="Layer" class="shp0" d="M354.47 125.98c0 .5-.17.9-.52 1.22-.34.32-.77.57-1.3.76-.53.19-1.1.32-1.71.39-.61.07-1.18.11-1.69.11-.6 0-1.12-.03-1.55-.08-.43-.05-.8-.15-1.11-.31-.3-.16-.52-.38-.66-.69-.15-.29-.22-.68-.22-1.16V86.93c0-.93.29-1.62.85-2.06.57-.45 1.47-.67 2.69-.67.6 0 1.21.05 1.83.15.62.1 1.18.27 1.68.5.49.23.9.53 1.22.92.32.39.48.86.48 1.41v14.46s-.04.51.18.69c.14.12.26.14.44.14.27 0 .43 0 .68-.09.24-.08.55-.33.55-.33l16.4-15.62c.52-.48 1-.86 1.43-1.17.44-.29.87-.53 1.29-.68.43-.15.93-.31 1.38-.36.46-.05.89-.03 1.43-.03.4 0 .79.07 1.18.2.4.14.76.33 1.08.6.32.27.59.61.79 1.03.21.41.31.9.31 1.46 0 .33-.03.66-.1 1-.06.32-.2.69-.42 1.09-.21.39-.52.83-.91 1.3-.39.48-.92 1.03-1.55 1.64l-13.29 12.55c-.31.31-.49.55-.54.73-.05.18-.08.34-.08.48 0 .17.03.37.08.54.05.18.23.42.54.73l13.33 12.59c.64.62 1.16 1.17 1.55 1.65.4.48.7.91.92 1.31.22.39.36.76.42 1.09.06.33.1.66.1.99 0 .56-.1 1.05-.31 1.46-.21.42-.47.76-.79 1.03-.32.27-.63.43-1.03.57-.39.13-.83.24-1.22.24-.54 0-1.03-.03-1.49-.08a5.51 5.51 0 01-1.32-.31c-.42-.16-.85-.38-1.29-.69-.43-.29-.91-.68-1.43-1.16 0 0-15.38-14.64-16.44-15.7-.19-.2-.32-.25-.55-.33-.25-.09-.41-.08-.68-.08-.18 0-.31.03-.45.15-.21.18-.18.69-.18.69v15.02zm292.66-40.35c0-.78.64-1.42 1.42-1.42H653c.78 0 1.42.64 1.42 1.42v94.64c0 .78-.64 1.42-1.42 1.42h-4.45c-.78 0-1.42-.64-1.42-1.42V85.63z"/></g></svg>