<svg version="1.1" id="Layer_1" xmlns="http://www.w3.org/2000/svg" x="0" y="0" viewBox="0 0 1000 1000" xml:space="preserve"><path d="M153.03 433.5v-32.76h4.58v16.25l15.66-16.25h5.7l-15.79 16.38 17.56 16.38h-6.1l-17.03-15.99v15.99h-4.58zm38.51 12.05l6.68-14.28-14.94-30.53h4.98l12.32 25.49 12.64-25.49h4.98l-21.75 44.82h-4.91zm31.74-44.81h4.58v3.8c2.88-2.88 6.57-4.32 11.07-4.32 4.85 0 8.85 1.63 12.02 4.88 3.16 3.25 4.75 7.26 4.75 12.02s-1.59 8.77-4.75 12.02c-3.17 3.25-7.18 4.88-12.02 4.88-4.5 0-8.19-1.44-11.07-4.32v15.85h-4.58v-44.81zm15.6 28.96c3.49 0 6.38-1.22 8.68-3.64 2.29-2.43 3.44-5.41 3.44-8.94s-1.15-6.52-3.44-8.94-5.19-3.64-8.68-3.64c-2.45 0-4.63.52-6.55 1.54-1.92 1.03-3.41 2.39-4.46 4.09v13.89c1.05 1.7 2.53 3.07 4.46 4.09 1.91 1.03 4.1 1.55 6.55 1.55zm53.55-.56c-3.19 3.25-7.25 4.88-12.19 4.88-4.94 0-9.01-1.63-12.22-4.88-3.21-3.25-4.81-7.26-4.81-12.02s1.6-8.77 4.81-12.02c3.21-3.25 7.28-4.88 12.22-4.88s9 1.63 12.19 4.88c3.19 3.25 4.78 7.26 4.78 12.02s-1.59 8.77-4.78 12.02zm-21-3.08c2.29 2.42 5.23 3.64 8.81 3.64s6.51-1.2 8.78-3.61c2.27-2.4 3.41-5.39 3.41-8.98s-1.14-6.57-3.41-8.98c-2.27-2.4-5.2-3.61-8.78-3.61-3.58 0-6.52 1.22-8.81 3.64-2.29 2.43-3.44 5.41-3.44 8.94s1.15 6.54 3.44 8.96zm35.38-25.32h4.58v3.8c2.88-2.88 6.57-4.32 11.07-4.32 4.85 0 8.85 1.63 12.02 4.88 3.16 3.25 4.75 7.26 4.75 12.02s-1.59 8.77-4.75 12.02c-3.17 3.25-7.18 4.88-12.02 4.88-4.5 0-8.19-1.44-11.07-4.32v15.85h-4.58v-44.81zm15.6 28.96c3.49 0 6.38-1.22 8.68-3.64 2.29-2.43 3.44-5.41 3.44-8.94s-1.15-6.52-3.44-8.94-5.19-3.64-8.68-3.64c-2.45 0-4.63.52-6.55 1.54-1.92 1.03-3.41 2.39-4.46 4.09v13.89c1.05 1.7 2.53 3.07 4.46 4.09 1.91 1.03 4.1 1.55 6.55 1.55zm32.34 3.8v-28.56h-10.81v-4.2h26.67v4.2h-11.27v28.56h-4.59zm68.39 96.77l47.1-97.47 47.25 97.47h-16.97l-30.27-63.53-30.27 63.53h-16.84zm99.44 0l47.1-97.47 47.25 97.47H600.1l-10.18-21.45h-40.45l-10.05 21.45h-16.84zm33.39-35.16h27.42l-13.71-29.05-13.71 29.05zm125.29-61.23v15.47h-38.15v80.91h-15.88v-96.38h54.03zm53.95 97.47c-13.67 0-25.3-4.77-34.89-14.32-9.6-9.55-14.39-21.2-14.39-34.96s4.79-25.41 14.39-34.96c9.59-9.55 21.22-14.32 34.89-14.32 13.76 0 25.41 4.75 34.96 14.25s14.32 21.18 14.32 35.03-4.77 25.52-14.32 35.02c-9.55 9.51-21.2 14.26-34.96 14.26zm0-15.2c9.5 0 17.42-3.28 23.76-9.84 6.33-6.56 9.5-14.64 9.5-24.23s-3.17-17.67-9.5-24.23c-6.34-6.56-14.25-9.84-23.76-9.84-9.41 0-17.29 3.28-23.62 9.84-6.34 6.56-9.5 14.64-9.5 24.23 0 9.6 3.17 17.67 9.5 24.23 6.33 6.56 14.21 9.84 23.62 9.84zM481.93 635.41v-96.38h15.88v39.91h49.71v-39.91h15.74v96.38h-15.74v-41.27h-49.71v41.27h-15.88zm91.62 0l47.1-97.47 47.25 97.47h-16.83l-10.18-21.45h-40.45l-10.05 21.45h-16.84zm33.39-35.16h27.42l-13.71-29.05-13.71 29.05zM338.5 635.41L453.49 398.2l-16.83-34.7-131.77 271.91zm426.88 1.09v-97.47h15.88v61.9l65.7-62.99v97.47h-15.75v-61.9l-65.83 62.99zm-87.17-1.09v-96.38h15.88v48.33l40.18-48.33h18.74l-40.45 48.87 44.39 47.51h-20.23l-42.63-45.48v45.48h-15.88z" fill="#035b6f"/></svg>