<svg version="1.2" baseProfile="tiny-ps" xmlns="http://www.w3.org/2000/svg" width="666" height="188"><style/><g id="Layer"><path id="Layer" fill-rule="evenodd" d="M638.27 55.89h-28.49c-5.43 15.23-10.33 29.15-13.64 39.21h-8.48L626.47.65h3.17l36.03 94.45h-12.72l-14.68-39.21zm-27.18-3.98h25.69l-13.24-35.37-7.55 21.59c-1.59 4.64-3.31 9.28-4.9 13.78zm-79.47-3.83h-15.5V95.1H504.6V2.38h27.94c19.87 0 33.78 7.02 33.78 22.52 0 12.19-8.61 19.47-21.86 22.12l30.6 48.08h-13.64l-29.8-47.02zm-1.73-3.99c13.52 0 24.51-5.43 24.51-18.94 0-13.51-10.99-18.81-24.51-18.81h-13.77v37.75h13.77zm-48.75 43.44v7.55h-64.11V2.36h59.87v7.28c-11.38-1.46-21.59-3.05-35.63-3.31l-12.72-.26v37.62h1.46c13.38-.53 21.34-.93 31-1.46v6.63c-9.66-.52-17.88-.79-31.26-1.32h-1.19v43.58l12.72-.26c13.77-.4 26.09-1.6 39.86-3.33zM394.46 2.37v7.28c-6.09-1.19-16.56-2.38-25.7-2.91l-8.48-.53v88.88h-11.52V6.21l-7.95.53c-9.41.66-18.94 1.85-25.7 2.91V2.37h79.35zm-109.47-.01h7.96l-1.06 92.72h-3.18l-61.99-82.26.79 21.19c1.06 29.68 1.72 47.29 2.65 61.07h-8.35l1.59-92.72h10.06l54.31 71.93-.39-16.82c-.4-19.73-1.73-41.99-2.39-55.1v-.01zM170.55 55.89h-28.48c-5.44 15.23-10.34 29.15-13.65 39.21h-8.48L158.75.65h3.18l36.03 94.45h-12.72l-14.69-39.21zm-27.16-3.98h25.7l-13.25-35.37-7.55 21.59c-1.59 4.64-3.31 9.28-4.9 13.78zM97.82 95.1v-.01.01zm0-.01H85.91l-1.32-80.27-35.9 80.27h-2.65L6.57 13.63l.39 21.46c.41 18.81.8 47.16 1.86 60.01H.34L3.25 2.38h10.06l37.62 77.49L85.77 2.38h9.4l2.65 92.71zm474.41 75.74c-.06.78-.12 1.57-.12 2.36 0 6.12 2.6 8.47 6.6 8.47 3.63 0 6.78-2.06 9.26-6.29l.55.24c-2.97 5.99-7.69 11.44-14.29 11.44-4.18 0-7.69-2.3-7.69-8.66 0-11.86 10.89-23.49 21.01-23.49 2.66 0 4.3 1.21 4.3 3.58 0 5.15-7.51 10.77-19.62 12.35zm.12-.73c5.87-1.03 12.83-4.3 12.83-9.87 0-1.75-.91-3.27-2.85-3.27-3.74 1.28-8.77 6.12-9.98 13.14zm-34.14 7.69c0-11.87 11.26-22.89 20.04-22.89 2.97 0 5.03 1.33 5.99 2.3l-3.57 5.14h-.61c-1.39-2.24-4.18-4.41-7.81-4.47-5.02 3.08-8.72 8.59-8.72 15.61 0 5.94 2.72 8.17 6.47 8.17 3.45 0 6.48-1.88 9.45-6.36l.48.31c-3.39 6.05-7.2 11.44-13.68 11.44-5.02.01-8.04-3.2-8.04-9.25zm-5.88-.97c-3.63 5.09-7.69 10.23-11.44 10.23-1.51 0-3.08-.84-3.08-3.33 0-1.82.72-4.67 3.38-11.99 1.64-4.48 2.91-8.72 2.91-9.93 0-.91-.43-1.52-1.33-1.52-1.58 0-4.9 2.43-12.53 13.32l-3.39 12.53h-6l6.72-25.19c.61-2.05-.06-3.02-2.6-2.72l-1.03.12.18-.61 11.14-2.84-4.54 16.83c6.84-10.35 12.05-16.83 16.65-16.83 1.88 0 3.51 1.09 3.51 3.75 0 2.3-1.39 6.72-3.27 11.81-1.51 4.18-2.91 8.53-2.91 9.87 0 .73.42 1.21 1.09 1.21 1.27 0 3.39-1.88 5.93-5.09l.61.38zm-54.49-5.99c-.06.78-.12 1.57-.12 2.36 0 6.12 2.6 8.47 6.6 8.47 3.63 0 6.78-2.06 9.26-6.29l.55.24c-2.97 5.99-7.69 11.44-14.29 11.44-4.18 0-7.69-2.3-7.69-8.66 0-11.86 10.89-23.49 21.01-23.49 2.66 0 4.3 1.21 4.3 3.58 0 5.15-7.51 10.77-19.62 12.35zm.13-.73c5.87-1.03 12.83-4.3 12.83-9.87 0-1.75-.91-3.27-2.84-3.27-3.76 1.28-8.78 6.12-9.99 13.14zm-12.54 6.24l.61.36c-4 6.72-7.99 10.35-11.14 10.35-1.82 0-2.91-1.09-2.91-3.21 0-1.33.48-3.02.91-4.54l2.24-8.36c-5.38 9.51-11.26 16.1-15.14 16.1-2.54 0-4.78-1.64-4.78-6.29 0-10.9 11.2-25.85 21.37-25.85.9 0 1.81.19 2.72.49l1.87-7.14c.61-2.12-.48-3.09-3.08-2.66l-2.05.3.18-.73 12.71-3.21-9.93 37.6c-.36 1.39.06 2 .79 2 1.15 0 3.21-1.64 5.63-5.21zm-9.44-8.6l2.06-7.81c-1.58-1.7-3.69-2.6-6.36-2.66-5.57 3.21-9.87 13.01-9.87 20.28 0 3.21 1.03 4 2.12 4 2.61 0 6.42-4.61 12.05-13.81zm-41.11 16.41c0-.54.12-1.21.36-2l5.94-21.19c.6-2.05-.06-3.02-2.6-2.73l-1.03.12.18-.61 11.14-2.84-6.84 24.46c-.42 1.39.06 2 .97 2 1.27 0 3.63-2.06 6-5.09l.6.42c-3.57 4.84-8.41 10.23-12.11 10.23-1.34.01-2.61-.65-2.61-2.77zm8.84-36.75c0-2.12 1.64-3.75 3.87-3.75 2.18 0 3.88 1.76 3.88 3.81 0 2.12-1.64 3.81-3.88 3.81-2.23 0-3.87-1.75-3.87-3.87zm-38.99 33.42l3.63-4.48h.36c1.51 3.75 5.69 8.53 10.9 8.53.79-.48 1.64-1.63 1.64-3.21 0-1.51-.79-2.66-1.64-4l-6.42-9.32c-.42-.55-1.57-2.36-1.57-4.36 0-4.06 4.6-9.08 10.84-9.08 3.57 0 6.96 1.75 9.02 4.42l-3.58 4.54h-.36c-1.63-3.57-5.39-7.2-8.9-7.2-1.57.42-2.42 1.51-2.42 3.14 0 1.34.78 2.6 1.45 3.58l6.54 9.56c.9 1.4 1.57 3.09 1.57 4.6 0 4.54-5.03 9.5-10.9 9.5-4.35.01-8.47-3.14-10.16-6.22zm-20.46-9.99c-.06.78-.12 1.57-.12 2.36 0 6.12 2.6 8.47 6.6 8.47 3.64 0 6.78-2.06 9.26-6.29l.55.24c-2.97 5.99-7.69 11.44-14.29 11.44-4.18 0-7.69-2.3-7.69-8.66 0-11.86 10.9-23.49 21.01-23.49 2.66 0 4.29 1.21 4.29 3.58 0 5.15-7.51 10.77-19.61 12.35zm.12-.73c5.88-1.03 12.84-4.3 12.84-9.87 0-1.75-.91-3.27-2.84-3.27-3.77 1.28-8.79 6.12-10 13.14zm-6.48-14.59l-2.36 7.63H355c-.85-.67-1.82-.97-2.66-.97-3.21 0-5.02 1.76-12.71 17.43l-1.75 6.54h-6.11l6.72-25.18c.54-2.05-.06-3.02-2.6-2.73l-1.03.12.18-.61 11.14-2.84-5.63 21.25c8.72-18.16 11.8-21.19 15.19-21.19.65.01 1.62.19 2.17.55zm-48.07 5.87c0 6.18-3.39 13.56-19.86 25.74l-.67-.49-.06-14.65c-2.84 6.05-7.38 10.23-14.17 15.14l-.72-.49-.79-23.73c-.12-2.66-.78-4.84-3.75-4.12l.06-.49 9.5-3.82.91 27.61c6.3-5.57 8.84-11.86 8.84-16.17 0-3.09-1.15-6.23-3.39-7.5v-.31l6.42-3.63c1.33 1.33 2.54 3.63 2.6 8.11l.42 19.5c6.36-5.39 9.02-11.38 9.02-15.68 0-3.27-1.09-6.6-3.27-7.99v-.31l6.42-3.63c1.82 1.95 2.49 4.49 2.49 6.91zm-63.99 9.45c-.06.78-.12 1.57-.12 2.36 0 6.12 2.6 8.47 6.6 8.47 3.63 0 6.78-2.06 9.26-6.29l.55.24c-2.97 5.99-7.69 11.44-14.29 11.44-4.18 0-7.69-2.3-7.69-8.66 0-11.86 10.9-23.49 21.01-23.49 2.66 0 4.29 1.21 4.29 3.58 0 5.15-7.51 10.77-19.61 12.35zm.12-.73c5.87-1.03 12.83-4.3 12.83-9.87 0-1.75-.91-3.27-2.84-3.27-3.76 1.28-8.78 6.12-9.99 13.14zm-26.58 14.05c0-.54.12-1.21.36-2l5.93-21.19c.6-2.05-.06-3.02-2.6-2.73l-1.03.12.18-.61 11.14-2.84-6.84 24.46c-.42 1.39.06 2 .97 2 1.27 0 3.63-2.06 5.99-5.09l.61.42c-3.58 4.84-8.42 10.23-12.11 10.23-1.33.01-2.6-.65-2.6-2.77zm8.84-36.75c0-2.12 1.64-3.75 3.88-3.75 2.18 0 3.88 1.76 3.88 3.81 0 2.12-1.64 3.81-3.88 3.81-2.25 0-3.88-1.75-3.88-3.87zm-36.39 15.5c-.12-3.27-.73-4.84-3.75-4.12l.06-.49 9.32-3.82.97 27.97c7.14-4.97 10.6-11.69 10.6-16.16 0-2.97-1.03-6.6-3.27-7.99V158l6.18-3.51c1.75 1.88 2.49 4.06 2.49 6.54 0 6.12-3.46 14.41-21.07 26.1l-.73-.49-.8-23.74zm-10.96 13.44l.6.42c-4.42 6.71-8.59 10.29-11.75 10.29-1.63 0-2.6-1.03-2.6-2.97 0-1.39.54-3.21 1.09-4.78l2.85-8.78c-6 9.69-12.17 16.53-16.17 16.53-2.36 0-4.48-1.51-4.48-5.69 0-6.91 5.39-17.07 13.68-22.94 2.66-1.82 6.66-3.51 9.69-3.51 1.15 0 2.12.19 3.03.67l5.69-1.82-8.23 25.79c-.49 1.39-.06 2 .6 2 1.16 0 3.34-1.64 6-5.21zm-8.96-8.48l2.78-8.54c-1.45-1.51-3.45-2.06-6.36-2.06-6.11 2.85-11.14 13.26-11.14 21.07 0 2.55.91 3.21 1.82 3.21 2.61.01 6.79-4.54 12.9-13.68zm-43.77 2.97c-.06.78-.12 1.57-.12 2.36 0 6.12 2.6 8.47 6.6 8.47 3.63 0 6.78-2.06 9.26-6.29l.55.24c-2.96 5.99-7.69 11.44-14.29 11.44-4.18 0-7.69-2.3-7.69-8.66 0-11.86 10.89-23.49 21.01-23.49 2.66 0 4.3 1.21 4.3 3.58 0 5.15-7.51 10.77-19.62 12.35zm.12-.73c5.88-1.03 12.83-4.3 12.83-9.87 0-1.75-.9-3.27-2.84-3.27-3.75 1.28-8.77 6.12-9.99 13.14zM85.11 183l4.42-11.75h.37c-.54 9.63 3.39 14.41 10.29 14.41 5.81 0 8.17-3.39 8.17-7.51 0-3.75-1.76-5.81-4.06-7.63l-6.23-5.08c-2.97-2.36-5.87-5.57-5.87-10.47 0-5.63 3.7-12.41 14.1-12.41 4.3 0 9.69 1.21 13.2 3.94l-4.48 11.38h-.37c.73-8.24-2.12-13.62-9.26-13.62-5.57 0-8.05 3.21-8.05 6.84 0 3.15 2 5.45 4.9 7.75l6.12 5.03c2.66 2.12 5.57 4.96 5.57 10.35 0 6.41-4.84 13.14-14.71 13.14-4.98-.01-10.54-1.71-14.11-4.37z" fill="#70878d"/></g></svg>