<svg width="50" height="50" fill="none" xmlns="http://www.w3.org/2000/svg"><g clip-path="url(#clip0)"><path d="M46.648 12.45c-2.236-3.83-5.268-6.862-9.098-9.097C33.719 1.117 29.537 0 25 0c-4.535 0-8.718 1.117-12.548 3.353-3.83 2.235-6.863 5.268-9.099 9.098C1.117 16.28 0 20.465 0 25s1.118 8.717 3.353 12.548c2.235 3.83 5.268 6.862 9.098 9.098C16.281 48.883 20.465 50 25.001 50c4.535 0 8.718-1.117 12.549-3.353 3.83-2.235 6.862-5.268 9.098-9.098C48.882 33.719 50 29.535 50 25c0-4.536-1.117-8.719-3.352-12.55zM41.21 26.434l-2.962 2.962a2.003 2.003 0 01-1.465.618 2.003 2.003 0 01-1.465-.618l-6.151-6.153v16.341c0 .564-.207 1.053-.62 1.465a2 2 0 01-1.464.619h-4.167a2 2 0 01-1.465-.619 2.001 2.001 0 01-.618-1.465v-16.34l-6.152 6.152c-.392.39-.88.585-1.466.585s-1.074-.195-1.465-.585l-2.96-2.963c-.39-.391-.586-.88-.586-1.466 0-.585.195-1.074.586-1.464l11.784-11.784 2.962-2.963c.391-.39.88-.586 1.465-.586.587 0 1.075.196 1.465.586l2.962 2.963 11.784 11.784c.391.39.586.878.586 1.464s-.194 1.075-.586 1.466z" fill="#000"/></g><defs><clipPath id="clip0"><path fill="#fff" d="M0 0h50v50H0z"/></clipPath></defs></svg>