<svg width="50" height="50" fill="none" xmlns="http://www.w3.org/2000/svg"><circle cx="25" cy="25" r="25" fill="#C4C4C4" fill-opacity=".3"/><path d="M15.347 21.19a.99.99 0 00-.346.718 1.02 1.02 0 00.282.747.942.942 0 001.424-.066l6.947-7.143v23.61c.013.255.12.495.3.67.18.176.42.274.667.274a.954.954 0 00.666-.273 1.01 1.01 0 00.301-.671v-23.61l6.939 7.154a.97.97 0 00.68.28.97.97 0 00.68-.28.99.99 0 00.282-.7 1.012 1.012 0 00-.282-.7l-8.596-8.848a.943.943 0 00-.68-.297.92.92 0 00-.68.297l-8.584 8.837z" fill="#fff"/></svg>