<svg width="134" height="52" fill="none" xmlns="http://www.w3.org/2000/svg"><path d="M15.658 3.096L13.69 5.424c-.832-.72-1.584-1.216-2.256-1.488a5.315 5.315 0 00-2.16-.432c-1.552 0-2.792.544-3.72 1.632-.912 1.072-1.368 2.512-1.368 4.32 0 1.808.456 3.264 1.368 4.368.928 1.088 2.152 1.632 3.672 1.632.848 0 1.608-.16 2.28-.48.64-.32 1.456-.888 2.448-1.704l1.968 2.28c-1.072 1.008-2.128 1.736-3.168 2.184-1.024.448-2.184.672-3.48.672-2.544.032-4.608-.808-6.192-2.52C1.498 14.176.722 12.024.754 9.432c-.032-2.576.728-4.704 2.28-6.384C4.602 1.352 6.69.52 9.298.552c1.264 0 2.384.2 3.36.6.976.384 1.976 1.032 3 1.944zm11.999 4.056c1.2 1.2 1.8 2.768 1.8 4.704s-.6 3.512-1.8 4.728c-1.184 1.2-2.704 1.8-4.56 1.8-1.872 0-3.408-.6-4.608-1.8-1.184-1.216-1.776-2.792-1.776-4.728s.592-3.504 1.776-4.704c1.2-1.216 2.736-1.824 4.608-1.824 1.856 0 3.376.608 4.56 1.824zm-7.776 4.704c0 1.184.288 2.128.864 2.832.592.704 1.376 1.056 2.352 1.056.96 0 1.728-.352 2.304-1.056.592-.704.888-1.648.888-2.832 0-1.168-.296-2.104-.888-2.808-.576-.72-1.344-1.08-2.304-1.08-.976 0-1.76.36-2.352 1.08-.576.704-.864 1.64-.864 2.808zm18.862-6.12h3.12V18h-3.12v-4.344c-.912.368-1.912.552-3 .552-1.648 0-2.856-.336-3.624-1.008-.752-.672-1.128-1.712-1.128-3.12V5.736h3.12V9.72c0 .672.168 1.152.504 1.44.352.288.936.432 1.752.432 1.008 0 1.8-.128 2.376-.384V5.736zm14.082 0h3.456V18h-2.904v-4.08c0-2.304.032-4.024.096-5.16a129.694 129.694 0 01-2.232 3.96L48.145 18H44.69V5.736h2.904v4.2c0 2.208-.032 3.88-.096 5.016a148.623 148.623 0 012.208-3.936l3.12-5.28zm23.336-1.944h-8.088V18h-3.36V.96H76.16v2.832zm9.62 3.36c1.2 1.2 1.8 2.768 1.8 4.704s-.6 3.512-1.8 4.728c-1.183 1.2-2.703 1.8-4.56 1.8-1.871 0-3.407-.6-4.607-1.8-1.184-1.216-1.776-2.792-1.776-4.728s.592-3.504 1.776-4.704c1.2-1.216 2.736-1.824 4.608-1.824 1.856 0 3.376.608 4.56 1.824zm-7.775 4.704c0 1.184.288 2.128.864 2.832.592.704 1.376 1.056 2.352 1.056.96 0 1.728-.352 2.304-1.056.592-.704.888-1.648.888-2.832 0-1.168-.296-2.104-.888-2.808-.576-.72-1.344-1.08-2.304-1.08-.976 0-1.76.36-2.352 1.08-.576.704-.864 1.64-.864 2.808zm10.183 6.12l.288-2.472c.384.048.688.072.912.072.672-.048 1.096-.312 1.272-.792.176-.496.28-1.64.312-3.432l.048-5.616h9.888V18h-3.12V8.256h-3.936l-.048 3.144c-.032 2.576-.296 4.336-.792 5.28-.496.928-1.496 1.424-3 1.488-.672 0-1.28-.064-1.824-.192zm15.563.024V5.736h3.12v3.648h3.024c1.456 0 2.624.392 3.504 1.176.88.768 1.32 1.816 1.32 3.144s-.44 2.376-1.32 3.144c-.88.768-2.048 1.152-3.504 1.152h-6.144zm3.12-2.544h2.64c1.36 0 2.04-.584 2.04-1.752 0-1.184-.68-1.776-2.04-1.776h-2.64v3.528zM123.141.96h3.024v4.392c2.048.064 3.712.664 4.992 1.8 1.28 1.104 1.92 2.672 1.92 4.704 0 2.032-.64 3.616-1.92 4.752-1.28 1.12-2.944 1.712-4.992 1.776v3.936h-3.024v-3.936c-2.08-.064-3.76-.656-5.04-1.776-1.264-1.12-1.896-2.704-1.896-4.752 0-2.032.64-3.6 1.92-4.704 1.264-1.12 2.936-1.72 5.016-1.8V.96zm.072 14.904V7.872c-1.232.032-2.184.392-2.856 1.08-.656.672-.984 1.64-.984 2.904s.328 2.24.984 2.928c.672.688 1.624 1.048 2.856 1.08zm2.88-7.992v7.992c1.216-.032 2.152-.384 2.808-1.056.672-.688 1.008-1.672 1.008-2.952 0-1.264-.328-2.232-.984-2.904-.656-.688-1.6-1.048-2.832-1.08zM42.478 31.448c1.023.976 1.535 2.272 1.535 3.888s-.511 2.912-1.535 3.888c-1.009.976-2.369 1.464-4.08 1.464h-4.849V47h-3.36V29.96h8.209c1.711 0 3.071.496 4.08 1.488zm-4.68 1.296H33.55v5.16h4.248c.895 0 1.6-.224 2.111-.672.513-.448.769-1.08.769-1.896 0-.816-.256-1.448-.768-1.896-.496-.464-1.2-.696-2.112-.696zm17.45 10.32L57 44.984c-.848.864-1.704 1.48-2.568 1.848-.864.368-1.832.552-2.904.552-1.968 0-3.536-.584-4.704-1.752-1.152-1.168-1.728-2.736-1.728-4.704 0-1.936.56-3.52 1.68-4.752 1.12-1.232 2.616-1.848 4.488-1.848 1.824 0 3.232.536 4.224 1.608C56.496 37.008 57 38.512 57 40.448c0 .336-.016.744-.048 1.224h-8.808c.144.976.504 1.736 1.08 2.28.592.528 1.384.792 2.376.792.688 0 1.272-.12 1.752-.36.512-.24 1.144-.68 1.896-1.32zm-7.032-3.624h5.736c-.064-.832-.344-1.48-.84-1.944-.48-.48-1.128-.72-1.944-.72-1.584 0-2.568.888-2.952 2.664zm21.206 4.008c0 1.216-.496 2.192-1.488 2.928-.992.736-2.368 1.104-4.128 1.104-2.144 0-4.08-.744-5.808-2.232l1.704-1.992c1.312 1.072 2.688 1.608 4.128 1.608.816 0 1.44-.144 1.872-.432.432-.288.648-.68.648-1.176 0-.48-.192-.816-.576-1.008-.384-.208-1.016-.312-1.896-.312h-2.04v-2.304h2.232c1.344 0 2.016-.448 2.016-1.344 0-.432-.192-.792-.576-1.08-.368-.288-.912-.432-1.632-.432-1.296 0-2.624.528-3.984 1.584l-1.488-1.992c1.696-1.376 3.568-2.064 5.616-2.064 1.344 0 2.536.312 3.576.936 1.04.624 1.56 1.512 1.56 2.664 0 1.296-.672 2.216-2.016 2.76 1.52.512 2.28 1.44 2.28 2.784zm12.493-7.296c1.2 1.2 1.8 2.768 1.8 4.704s-.6 3.512-1.8 4.728c-1.184 1.2-2.704 1.8-4.56 1.8-1.872 0-3.408-.6-4.608-1.8-1.184-1.216-1.776-2.792-1.776-4.728s.592-3.504 1.776-4.704c1.2-1.216 2.736-1.824 4.608-1.824 1.856 0 3.376.608 4.56 1.824zm-7.776 4.704c0 1.184.288 2.128.864 2.832.592.704 1.376 1.056 2.352 1.056.96 0 1.728-.352 2.304-1.056.592-.704.888-1.648.888-2.832 0-1.168-.296-2.104-.888-2.808-.576-.72-1.344-1.08-2.304-1.08-.976 0-1.76.36-2.352 1.08-.576.704-.864 1.64-.864 2.808zm22.386-4.68c1.024 1.184 1.536 2.744 1.536 4.68 0 1.936-.512 3.504-1.536 4.704-1.024 1.184-2.328 1.776-3.912 1.776-1.616 0-2.84-.536-3.672-1.608v5.592h-3.12V34.736h2.904v1.608c.88-1.312 2.184-1.968 3.912-1.968 1.584 0 2.88.6 3.888 1.8zm-2.448 7.44c.544-.688.816-1.608.816-2.76 0-1.152-.272-2.072-.816-2.76-.528-.688-1.248-1.032-2.16-1.032-.912 0-1.656.352-2.232 1.056-.576.688-.864 1.6-.864 2.736 0 1.152.28 2.072.84 2.76.576.672 1.32 1.008 2.232 1.008.912 0 1.64-.336 2.184-1.008zm16.009-6.36h-4.032V47h-3.12v-9.744h-4.032v-2.52h11.184v2.52z" fill="#000"/></svg>