<svg width="63" height="627" fill="none" xmlns="http://www.w3.org/2000/svg"><path d="M45.621 366.84L-.004 420.242v7.391H62.73V416.84H17.102l45.629-53.406v-7.387H-.005v10.793" fill="#000"/><path d="M45.621 366.84L-.004 420.242v7.391H62.73V416.84H17.102l45.629-53.406v-7.387H-.005v10.793" fill="#C5C3C4"/><path d="M37.809 494.941l-22.45-14.464 22.45-14.465v28.929zm24.922-44.984v-12.844L-.005 477.531v5.891L62.73 523.84v-12.844l-14.98-9.648v-41.739" fill="#000"/><path d="M37.809 494.941l-22.45-14.464 22.45-14.465v28.929zm24.922-44.984v-12.844L-.005 477.531v5.891L62.73 523.84v-12.844l-14.98-9.648v-41.739" fill="#C5C3C4"/><path d="M37.809 58.816l-22.45-14.46L37.81 29.89v28.925zm24.922-44.98V.992L-.005 41.41v5.887L62.73 87.719V74.875l-14.98-9.652V23.484" fill="#000"/><path d="M37.809 58.816l-22.45-14.46L37.81 29.89v28.925zm24.922-44.98V.992L-.005 41.41v5.887L62.73 87.719V74.875l-14.98-9.652V23.484" fill="#C5C3C4"/><path d="M10.79 343.242v-32.808h51.94v-10.797H10.79v-32.809H-.005v76.414" fill="#000"/><path d="M10.79 343.242v-32.808h51.94v-10.797H10.79v-32.809H-.005v76.414" fill="#C5C3C4"/><path d="M-.004 551.027l46.496 26.703-46.496 26.696v7.371L62.73 627v-11.109l-42.914-10.399 42.915-24.64v-6.247l-42.915-24.64 42.915-10.403v-11.105L-.005 543.66" fill="#000"/><path d="M-.004 551.027l46.496 26.703-46.496 26.696v7.371L62.73 627v-11.109l-42.914-10.399 42.915-24.64v-6.247l-42.915-24.64 42.915-10.403v-11.105L-.005 543.66" fill="#C5C3C4"/><path d="M62.73 252.684v-67.618H51.934v56.821H36.758v-38.84H25.965v38.84H10.789v-56.821H-.004v67.618" fill="#000"/><path d="M62.73 252.684v-67.618H51.934v56.821H36.758v-38.84H25.965v38.84H10.789v-56.821H-.004v67.618" fill="#C5C3C4"/><path d="M25.965 158.844H10.789v-37.34c0-7.625 3.934-11.102 7.586-11.102 3.656 0 7.59 3.477 7.59 11.102v37.34zm-7.59-59.235C9.25 99.61.008 107.121-.004 121.48v48.161H62.73v-10.797H36.758v-26.977l25.972-24.539V92.481l-26.257 24.804c-1.637-11.621-10.008-17.676-18.098-17.676z" fill="#000"/><path d="M25.965 158.844H10.789v-37.34c0-7.625 3.934-11.102 7.586-11.102 3.656 0 7.59 3.477 7.59 11.102v37.34zm-7.59-59.235C9.25 99.61.008 107.121-.004 121.48v48.161H62.73v-10.797H36.758v-26.977l25.972-24.539V92.481l-26.257 24.804c-1.637-11.621-10.008-17.676-18.098-17.676z" fill="#C5C3C4"/></svg>