<svg width="627" height="64" fill="none" xmlns="http://www.w3.org/2000/svg"><path d="M260.52 46.262L207.118.637h-7.391V63.37h10.793V17.742l53.406 45.63h7.387V.636H260.52M132.419 38.45L146.883 16l14.465 22.45h-28.929zm44.984 24.921h12.844L149.829.637h-5.891L103.52 63.37h12.844l9.648-14.98h41.739m400.793-9.94L583.005 16l14.464 22.45h-28.925zm44.98 24.921h12.844L585.95.637h-5.887L539.641 63.37h12.844l9.652-14.98h41.739M284.118 11.43h32.808v51.94h10.797V11.43h32.809V.637h-76.414m-207.785 0L49.63 47.133 22.933.637h-7.37L.36 63.37h11.11l10.398-42.914 24.64 42.914h6.246l24.641-42.914L87.798 63.37h11.105L83.7.637m290.976 62.734h67.618V52.574h-56.821V37.398h38.84V26.605h-38.84V11.43h56.821V.637h-67.618m93.84 25.968V11.43h37.34c7.625 0 11.102 3.933 11.102 7.586 0 3.656-3.477 7.59-11.102 7.59h-37.34zm59.235-7.59c0-9.124-7.512-18.367-21.871-18.378h-48.161V63.37h10.797V37.398h26.977l24.539 25.973h14.848l-24.805-26.258c11.621-1.636 17.676-10.008 17.676-18.097z" fill="#000"/></svg>